<?xml version="1.0" encoding="UTF-8"?><svg id="Layer_2" xmlns="http://www.w3.org/2000/svg" viewBox="0 0 1943.55 215.94"><defs><style>.cls-1{fill:#fff;}</style></defs><g id="Layer_1-2"><path class="cls-1" d="m651.44,209.38h158.07c.27,0,.55,0,.55-.6l1.91-92.16c0-.6-.27-.6-.55-.6h-4.92c-.27,0-.55,0-.55.6l1.91,31.32c0,27.14-24.07,56.97-49.77,56.97h-36.37c-3.83,0-11.21-5.07-11.21-13.12v-65.92c0-13.42,5.2-20.88,14.22-20.88,19.14,0,31.18,25.05,29.26,69.5,0,.3.27.6.55.6h3.56c.27,0,.55-.3.55-.6V31.02c0-.3-.27-.6-.55-.6h-3.56c-.27,0-.55.3-.55.6,1.91,44.14-10.12,69.5-29.26,69.5-9.3,0-14.22-7.46-14.22-20.88V17.3c0-6.26,4.92-11.93,13.67-11.93h33.37c25.71,0,49.77,29.53,49.77,57.27l-2.19,24.16c0,.6.27.6.55.6h4.65c.27,0,.55,0,.55-.6l1.37-85.6c0-.6-.27-.6-.55-.6h-160.26c-.27,0-.55.3-.55.6v3.28c0,.3.27.6.55.6h23.79c7.11,0,11.76,2.98,11.76,13.12v173.59c0,9.84-4.38,13.72-12.03,13.72h-23.52c-.27,0-.55.3-.55.6v2.68c0,.3.27.6.55.6Z"/><path class="cls-1" d="m876.24,128.25c-38.01,16.4-52.51,36.09-52.51,60.25,0,20.88,5.47,25.05,12.58,25.05,10.12,0,25.71-10.14,46.49-23.56,7.66-5.37,11.49-4.47,13.4,4.47,1.64,7.75,5.2,15.21,24.34,15.21,15.59,0,22.42-3.28,22.42-17.3v-43.25c0-.3-.27-.6-.55-.6h-4.92c-.27,0-.55,0-.55.6l2.74,43.25c.55,8.05-4.65,11.93-10.94,11.93s-11.21-2.39-11.21-10.44v-107.38c0-12.23-9.57-22.07-43.76-22.07-25.43,0-41.84,14.02-41.84,36.98,0,8.35,5.74,17.3,15.32,17.3,8.75,0,15.86-8.05,15.86-16.11,0-14.91-14.5-9.54-15.04-21.18-.27-7.16,10.67-12.53,25.71-12.53,13.67,0,22.43,5.07,22.43,17.3v13.72c0,17-6.02,22.07-19.96,28.33Zm19.96,39.37c0,6.56-2.19,11.04-7.38,14.32-12.85,8.35-26.8,17-32.82,17-4.1,0-9.57-2.98-9.57-15.21,0-29.53,19.14-47.72,31.45-53.39,13.13-6.26,18.32-2.39,18.32,7.46v29.83Z"/><path class="cls-1" d="m1030.21,65.62c-6.84,0-14.77,5.37-23.52,12.83-8.48,6.86-15.32,6.56-15.32-.9v-8.05c0-.3-.27-.6-.55-.6h-45.4c-.27,0-.55.3-.55.6v2.68c0,.3.27.6.55.6h12.85c7.11,0,11.76,3.58,11.76,13.72v105.29c0,9.84-4.38,13.12-12.03,13.12h-12.58c-.27,0-.55.3-.55.6v3.28c0,.3.27.6.55.6h81.5c.27,0,.55-.3.55-.6v-5.07c0-.3-.27-.6-.55-.6l-23.52,2.39c-7.38,0-12.03-3.58-12.03-13.72v-87.39c0-4.47,1.37-7.75,4.65-11.04,14.22-13.12,26.53-22.97,33.37-22.97,4.65,0,7.11,3.28,7.11,8.05,0,10.14-13.95,7.46-13.95,22.67,0,10.44,8.48,14.32,14.77,14.32,9.85,0,17.78-10.14,17.78-20.88,0-18.19-11.76-28.93-24.89-28.93Z"/><path class="cls-1" d="m1163.94,146.75h-3.83c-.27,0-.55.3-.55.6-.27,49.81-13.13,56.37-24.07,56.37-15.31,0-24.89-15.51-24.89-49.51v-66.21c0-7.75,3.83-11.93,10.94-11.93h42.12c.27,0,.55-.3.55-.6v-5.97c0-.3-.27-.6-.55-.6l-53.06,1.79V15.81c0-.3-.27-.6-.55-.6h-2.74c-.27,0-.55.3-.55.6-4.1,26.55-12.03,54.58-39.11,54.58l-9.57-1.49c-.27,0-.55.3-.55.6v4.18c0,.3.27.6.55.6h31.18l.27,93.06c0,29.83,15.04,46.53,37.47,46.53,23.79,0,37.47-14.02,37.47-66.51,0-.3-.27-.6-.55-.6Z"/><path class="cls-1" d="m1303.69,204.91h-12.58c-7.38,0-12.03-3.58-12.03-13.72v-109.76c0-5.97-2.74-12.53-9.85-12.53-10.67,0-27.08,10.44-49.23,24.76-7.66,5.07-13.4,1.49-13.4-8.05V1.19c0-.3-.27-.6-.55-.6h-45.4c-.27,0-.55.3-.55.6v3.28c0,.3.27.6.55.6h12.85c7.11,0,11.76,2.98,11.76,13.12v173.59c0,9.84-4.38,13.42-12.03,13.42l-12.58-.3c-.27,0-.55.3-.55.6v3.28c0,.3.27.6.55.6h67.82c.27,0,.55-.3.55-.6v-5.07c0-.3-.27-.6-.55-.6l-12.58,2.39c-7.38,0-9.3-3.58-9.3-13.72v-75.16c0-6.26,2.19-10.74,7.38-14.32,13.4-8.95,29.26-19.39,35.55-19.39,4.1,0,8.21,2.98,8.21,10.44v98.43c0,9.84-1.64,13.72-9.3,13.72l-12.58-2.39c-.27,0-.55.3-.55.6v5.07c0,.3.27.6.55.6h67.82c.27,0,.55-.3.55-.6v-3.28c0-.3-.27-.6-.55-.6Z"/><path class="cls-1" d="m383.97,208.78v-3.28c0-.3-.27-.6-.55-.6h-12.58c-7.38,0-12.03-3.58-12.03-13.72v-109.76c0-5.97-2.74-12.53-9.85-12.53-10.67,0-27.08,10.44-49.23,24.76-7.66,5.07-13.4,1.49-13.4-8.05V1.19c0-.3-.27-.6-.55-.6h-115.95c-.55,0-.82.3-.82.9v4.47c0,.6.27.89.82.89l22.42-2.39c18.6-.6,13.67,37.28,4.65,70.39l-14.22,52.49c-3.01,11.04-10.67,11.04-13.67,0L135.1,1.49c0-.3-.82-.9-1.09-.9h-39.11c-.55,0-.82.3-.82.9v4.47c0,.6.27.89.82.89l14.22-2.39c15.86-.6,15.32,27.14,8.21,55.48l-17.5,69.79c-2.74,11.33-10.67,11.04-13.67,0L55.52,18.19c-2.73-9.84.55-13.72,8.2-13.72l19.42,2.39c.55,0,.82-.3.82-.89V1.49c0-.6-.27-.9-.82-.9H.82c-.55,0-.82.3-.82.9v2.68c0,.6.27.89.82.89h13.95c7.66,0,13.13,3.28,15.86,13.12l51.14,190.29c0,.6.82.9,1.09.9h24.07c.55,0,1.09-.3.82-.9l-9.85-35.79c-1.37-5.37-1.64-10.14-.27-15.51l19.14-75.16c2.74-11.33,10.67-11.63,13.67-.3l30.63,110.06,4.65,17c0,.3.82.6,1.09.6h22.7c.55,0,.55-.3.82-.6v-.6l-4.38-16.4-5.2-19.98c-1.64-5.97-1.64-10.74,0-16.7l3.53-13.44h80.7v50.12c0,9.84-4.38,13.42-12.03,13.42l-12.58-.3c-.27,0-.55.3-.55.6v3.28c0,.3.27.6.55.6h67.82c.27,0,.55-.3.55-.6v-5.07c0-.3-.27-.6-.55-.6l-12.58,2.39c-7.38,0-9.3-3.58-9.3-13.72v-75.16c0-6.26,2.19-10.74,7.38-14.32,13.4-8.95,29.26-19.39,35.55-19.39,4.1,0,8.2,2.98,8.2,10.44v98.43c0,9.84-1.64,13.72-9.3,13.72l-12.58-2.39c-.27,0-.55.3-.55.6v5.07c0,.3.27.6.55.6h67.82c.27,0,.55-.3.55-.6Zm-198.47-71.67l16.34-62.25c8.48-32.51,22.43-69.79,40.75-69.79h10.66c7.11,0,11.76,2.98,11.76,13.12v118.92h-79.51Z"/><path class="cls-1" d="m1535.8,64.42c-31.04,0-54.6,30.51-55.21,72.87h-9.82c.65-6.14,1.01-12.62,1.04-19.48,0-.3-.27-.6-.55-.6h-4.1c-.27,0-.55.3-.55.6-.03,6.92-.42,13.39-1.09,19.48h-23.17c-.21,0-.39.28-.39.62v3.29c0,.35.17.62.39.62h22.6c-6.75,47.68-33.44,68.74-65.89,68.74-37.47,0-48.68-18.79-48.68-101.11s11.21-103.8,45.12-103.8,56.34,33.41,69.46,89.48c0,.3.27.6.55.6h4.1c.27,0,.55,0,.55-.6l-3.01-34.9,2.19-59.65c0-.6-.27-.6-.55-.6h-3.83c-.27,0-.55.3-.55.6-.27,15.21-5.47,26.84-13.4,26.84-13.4,0-22.97-26.84-55.52-26.84-42.39,0-77.12,45.63-77.12,108.87s34.73,106.48,80.68,106.48c37.99,0,64.63-24.97,71.17-74.11h10.37c1.02,42.05,24.44,72.02,55.2,72.02s54.97-31.32,54.97-74.86-23.79-74.57-54.97-74.57Zm0,145.85c-21.51,0-29.27-14.41-29.53-68.44h27.61c.21,0,.39-.28.39-.62v-3.29c0-.34-.17-.62-.39-.62h-27.62c.16-54.67,7.88-69.29,29.53-69.29s29.26,14.91,29.26,70.99-7.66,71.29-29.26,71.29Z"/><path class="cls-1" d="m1771.26,64.42c-31.04,0-54.6,30.51-55.21,72.87h-4.91s-6.33,0-6.33,0V1.19c0-.3-.27-.6-.55-.6h-53.6c-.27,0-.55.3-.55.6v5.07c0,.3.27.6.55.6l20.79-2.39c7.66,0,12.03,3.88,12.03,13.72v59.65c0,10.44-1.92,10.44-7.38,1.79-5.74-9.54-14.49-15.21-26.53-15.21-31.18,0-49.5,35.79-49.5,74.86s18.32,74.57,49.5,74.57c10.94,0,19.69-7.16,26.25-18.79,5.2-9.54,7.66-9.25,7.66,1.49v12.23c0,.3.27.6.55.6h45.4c.27,0,.55-.3.55-.6v-3.28c0-.3-.27-.6-.55-.6h-12.85c-7.11,0-11.76-3.58-11.76-13.72v-49.35h11.26c.93,46.22,24.43,72.02,57.66,72.02,26.53,0,46.22-19.09,50.59-60.55,0-.3-.27-.6-.55-.6h-3.83c-.27,0-.55.3-.55.6-4.38,40.86-24.34,56.07-43.48,56.07-23.79,0-32.82-11.33-34.18-55.48,0-8.05,3.83-12.53,10.94-12.53h73.02c.27,0,.55-.3.55-.6v-3.28c0-41.76-23.79-73.07-54.97-73.07Zm-121.7,144.96c-13.95,0-23.79-18.49-23.79-70.09s8.48-70.39,23.79-70.39c20.51,0,33.56,18.04,33.9,68.39h-29.41c-.21,0-.39.28-.39.62v3.29c0,.35.17.62.39.62h29.4c-.63,49.64-19.36,67.54-33.88,67.54Zm149.32-88.29c0,9.54-4.38,17.3-12.58,17l-33.64-1.19c-6.84-.3-10.94-4.77-10.67-12.83,1.09-43.25,9.3-55.18,29.26-55.18,18.32,0,27.62,9.84,27.62,31.32v20.88Z"/><path class="cls-1" d="m1943.01,143.17h-3.56c-.27,0-.55.3-.55.6-.27,44.44-21.88,65.62-42.94,65.62-27.35,0-35.01-14.02-35.01-70.39s7.66-70.09,33.64-70.09c17.23,0,30.9,7.75,30.9,15.21,0,10.74-21.88,6.86-21.88,26.55,0,11.33,8.75,18.49,20.24,18.49,9.57,0,18.05-10.74,18.05-23.86,0-27.74-22.7-40.86-47.31-40.86-35.55,0-59.35,31.32-59.35,74.57,0,50.11,23.79,74.86,60.71,74.86,24.61,0,47.31-25.65,47.59-70.09,0-.3-.27-.6-.55-.6Z"/><path class="cls-1" d="m628.69.6h-118.36s0,0-.01,0h-45.4c-.27,0-.55.3-.55.6v3.28c0,.3.27.6.55.6h12.83s0,0,0,0h.05c7.09.01,11.72,3.6,11.72,13.72v118.32h-10.7c-.68-42.27-24.22-72.69-54.94-72.69s-55.24,31.32-55.24,74.57,23.79,74.86,55.24,74.86,53.97-30.05,54.92-72.2h10.71v49.53c0,9.84-4.38,13.72-12.03,13.72h-12.58c-.27,0-.55.3-.55.6v3.28c0,.3.27.6.55.6h70.56c.27,0,.55-.3.55-.6v-3.28c0-.3-.27-.6-.55-.6h-12.58c-7.38,0-12.03-3.58-12.03-13.72v-49.53h11.53c.87,46.34,24.39,72.2,57.66,72.2,26.53,0,46.22-19.09,50.59-60.55,0-.3-.27-.6-.55-.6h-3.83c-.27,0-.55.3-.55.6-4.38,40.86-24.34,56.07-43.48,56.07-23.79,0-32.82-11.33-34.18-55.48,0-8.05,3.83-12.53,10.94-12.53h73.02c.27,0,.55-.3.55-.6v-3.28c0-41.76-23.79-73.07-54.97-73.07s-54.53,30.42-55.21,72.69h-11.52V5.07h117.83c.39,0,.71-.32.71-.71V1.31c0-.39-.32-.71-.71-.71Zm-204.79,209.68c-21.88,0-29.54-14.91-29.54-71.29s7.66-70.99,29.54-70.99,29.09,14.58,29.26,69.11h-14.55c-.26,0-.46.21-.46.46v3.61c0,.26.21.46.46.46h14.55c-.24,54.18-8,68.62-29.26,68.62Zm124.43-86.2c1.09-43.25,9.3-55.18,29.26-55.18,18.32,0,27.62,9.84,27.62,31.32v20.88c0,9.54-4.38,17.3-12.58,17l-33.64-1.19c-6.84-.3-10.94-4.77-10.67-12.83Z"/><rect class="cls-1" x="1034.95" y="202.96" width="6.43" height="6.43" rx=".64" ry=".64"/><rect class="cls-1" x="1311.95" y="206.17" width="6.43" height="6.43" rx=".64" ry=".64"/><path class="cls-1" d="m935.04,68.9h2.69c.33,0,.59.27.59.59v2.68c0,.33-.27.59-.59.59h-2.69c-.33,0-.59-.27-.59-.59v-2.68c0-.33.27-.59.59-.59Z"/><rect class="cls-1" x="1171.12" y="68.8" width="7.21" height="7.21" rx=".72" ry=".72"/><rect class="cls-1" x="427.78" y="137.07" width="4.64" height="4.64" rx=".46" ry=".46"/><rect class="cls-1" x="638.08" y=".6" width="4.5" height="4.5" rx=".44" ry=".44"/><rect class="cls-1" x="291.39" y="137.07" width="4.64" height="4.64" rx=".45" ry=".45"/><rect class="cls-1" x="151.02" y=".16" width="6.43" height="6.43" rx=".64" ry=".64"/><rect class="cls-1" x="1643.7" y="137.25" width="4.64" height="4.64" rx=".45" ry=".45"/><rect class="cls-1" x="1539.28" y="137.25" width="4.64" height="4.64" rx=".45" ry=".45"/><rect class="cls-1" x="1636.54" y=".59" width="6.43" height="6.43" rx=".64" ry=".64"/></g></svg>