<?xml version="1.0" encoding="UTF-8"?><svg id="Layer_2" xmlns="http://www.w3.org/2000/svg" viewBox="0 0 249.51 71.84"><defs><style>.cls-1{fill:#fff;}</style></defs><g id="Layer_1-2"><path class="cls-1" d="m25.86,29.43s.08.04.08.09v.43s-.04.09-.08.09h-11.97s-.08-.04-.08-.09v-.6s.04-.09.08-.09l2.87.21c1.12,0,1.6-.56,1.12-1.97l-1.96-5.75c-.28-.99-.96-1.42-1.88-1.42h-4.75c-1.32,0-2.35.77-2.87,2.32-.92,2.75-.52,6.91,1.79,6.82l2.12-.21s.08.04.08.09v.6s-.04.09-.08.09H.08s-.08-.04-.08-.09v-.43s.04-.09.08-.09h.72c2.71,0,4.19-5.49,5.71-10.08l3.95-12.19c.16-.56.08-1.03-.08-1.63L9.02.09q0-.09.04-.09h3.63s.12.04.12.09l8.98,27.42c.48,1.42,1.28,1.93,2.39,1.93h1.68ZM7.98,17.81c-.4,1.2.16,1.97,1.36,1.97h4.03c1.16,0,1.64-.77,1.24-1.93l-2.91-8.71c-.24-.82-.56-.82-.88.04l-2.83,8.62Z"/><path class="cls-1" d="m38.11,11.41c.84,0,1.4-1.2,1.6-2.19,0-.04.04-.09.08-.09h.28s.08,0,.08.09l-.24,5.02.28,3.52c0,.09-.04.09-.08.09h-.24s-.08-.04-.12-.09c-1.12-3.69-3.83-7.94-6.86-7.94-2.35,0-3.79,1.59-3.79,3.86s1.96,2.96,6.26,3.82c4.83.99,6.42,3.39,6.42,6.91,0,4.08-2.67,6.26-5.47,6.26-3.55,0-4.55-2.92-6.18-2.92-.8,0-1.36.47-1.56,2.19,0,.04-.04.09-.08.09h-.28s-.08,0-.08-.09l.36-5.49-.28-3.48c0-.09.04-.09.08-.09l.32-.04s.08.04.08.09c1.68,6.52,4.99,9.1,7.7,9.1,2.23,0,3.87-1.89,3.87-4.03,0-2.79-1.24-3.99-5.95-4.85-3.51-.64-6.7-1.59-6.7-6.14,0-3.73,2.39-5.83,5.19-5.83,2.99,0,4.03,2.23,5.31,2.23Z"/><path class="cls-1" d="m54.11,11.41c.84,0,1.4-1.2,1.6-2.19,0-.04.04-.09.08-.09h.28s.08,0,.08.09l-.24,5.02.28,3.52c0,.09-.04.09-.08.09h-.24s-.08-.04-.12-.09c-1.12-3.69-3.83-7.94-6.86-7.94-2.35,0-3.79,1.59-3.79,3.86s1.96,2.96,6.26,3.82c4.83.99,6.42,3.39,6.42,6.91,0,4.08-2.67,6.26-5.47,6.26-3.55,0-4.55-2.92-6.18-2.92-.8,0-1.36.47-1.56,2.19,0,.04-.04.09-.08.09h-.28s-.08,0-.08-.09l.36-5.49-.28-3.48c0-.09.04-.09.08-.09l.32-.04s.08.04.08.09c1.68,6.52,4.99,9.1,7.7,9.1,2.23,0,3.87-1.89,3.87-4.03,0-2.79-1.24-3.99-5.95-4.85-3.51-.64-6.7-1.59-6.7-6.14,0-3.73,2.39-5.83,5.19-5.83,2.99,0,4.03,2.23,5.31,2.23Z"/><path class="cls-1" d="m76.02,20.25h-10.65c-1.04,0-1.6.64-1.6,1.8.2,6.35,1.52,7.98,4.99,7.98,2.79,0,5.71-2.19,6.34-8.07,0-.04.04-.09.08-.09h.56s.08.04.08.09c-.64,5.96-3.51,8.71-7.38,8.71-4.95,0-8.42-3.86-8.42-10.77,0-6.22,3.47-10.73,8.06-10.73s8.02,4.5,8.02,10.51v.47s-.04.09-.08.09Zm-5.75-.47c1.2.04,1.83-1.07,1.83-2.45v-3c0-3.09-1.36-4.5-4.03-4.5-2.91,0-4.11,1.72-4.27,7.94-.04,1.16.56,1.8,1.56,1.85l4.91.17Z"/><path class="cls-1" d="m108.07,29.39s.08.04.08.09v.47s-.04.09-.08.09h-9.9s-.08-.04-.08-.09v-.73s.04-.09.08-.09l1.84.34c1.12,0,1.36-.56,1.36-1.97v-14.16c0-1.07-.6-1.5-1.2-1.5-.92,0-3.23,1.5-5.19,2.79-.76.51-1.08,1.16-1.08,2.06v10.81c0,1.46.28,1.97,1.36,1.97l1.84-.34s.08.04.08.09v.73s-.04.09-.08.09h-9.5s-.08-.04-.08-.09v-.73s.04-.09.08-.09l1.84.34c1.12,0,1.36-.56,1.36-1.97v-14.16c0-1.07-.6-1.5-1.2-1.5-.92,0-3.23,1.5-5.19,2.79-.76.51-1.08,1.16-1.08,2.06v10.81c0,1.46.28,1.97,1.36,1.97l1.83-.34s.08.04.08.09v.73s-.04.09-.08.09h-9.9s-.08-.04-.08-.09v-.47s.04-.09.08-.09h1.83c1.12,0,1.76-.56,1.76-1.97v-15.06c0-1.46-.68-1.97-1.72-1.97h-1.88s-.08-.04-.08-.09v-.39s.04-.09.08-.09h6.62s.08.04.08.09v2.32c0,1.37.84,1.89,1.96,1.16,3.23-2.06,5.63-3.56,7.18-3.56,1.04,0,1.44.94,1.44,1.8v.6c0,1.37.84,1.89,1.96,1.16,3.23-2.06,5.63-3.56,7.18-3.56,1.04,0,1.44.94,1.44,1.8v15.88c0,1.46.68,1.89,1.76,1.89h1.83Z"/><path class="cls-1" d="m125.51,19.95c0,5.58-2.67,10.73-7.22,10.73-1.6,0-2.87-1.03-3.83-2.7-.56-.94-1.12-.77-1.12.21v1.76s-.04.09-.08.09h-6.62s-.08-.04-.08-.09v-.47s.04-.09.08-.09h1.88c1.04,0,1.72-.51,1.72-1.97V2.62c0-1.42-.64-1.97-1.76-1.97h-1.83s-.08-.04-.08-.09V.09s.04-.09.08-.09h6.62s.08.04.08.09v11.89c0,.64.36.77.68.09.68-1.5,2.07-2.87,4.27-2.87,4.55,0,7.22,5.15,7.22,10.77Zm-3.75,0c0-7.47-1.24-10.13-3.47-10.13-3.03,0-4.95,2.66-4.95,10.13s2.79,10.08,4.95,10.08c2.04,0,3.47-2.66,3.47-10.08Z"/><path class="cls-1" d="m135.81,29.39s.08.04.08.09v.47s-.04.09-.08.09h-10.29s-.08-.04-.08-.09v-.47s.04-.09.08-.09h1.83c1.12,0,1.76-.56,1.76-1.97V2.62c0-1.46-.68-1.97-1.72-1.97h-1.88s-.08-.04-.08-.09V.09s.04-.09.08-.09h6.62s.08.04.08.09v27.33c0,1.46.68,1.97,1.76,1.97h1.84Z"/><path class="cls-1" d="m145.86,29.39s.08.04.08.09v.47s-.04.09-.08.09h-10.29s-.08-.04-.08-.09v-.47s.04-.09.08-.09h1.84c1.12,0,1.76-.56,1.76-1.97v-15.06c0-1.46-.68-1.97-1.72-1.97h-1.88s-.08-.04-.08-.09v-.39s.04-.09.08-.09h6.62s.08.04.08.09v17.51c0,1.46.68,1.97,1.75,1.97h1.84Zm-8.22-26.82c0-1.42,1.08-2.57,2.43-2.57s2.39,1.16,2.39,2.57-1.08,2.62-2.39,2.62-2.43-1.16-2.43-2.62Z"/><path class="cls-1" d="m166.58,29.39s.08.04.08.09v.47s-.04.09-.08.09h-9.9s-.08-.04-.08-.09v-.6s.04-.09.08-.09l1.83.21c1.12,0,1.36-.56,1.36-1.97v-14.16c0-1.07-.6-1.5-1.2-1.5-.92,0-3.23,1.5-5.19,2.79-.76.51-1.08,1.16-1.08,2.06v10.81c0,1.46.28,1.97,1.36,1.97l1.83-.21s.08.04.08.09v.6s-.04.09-.08.09h-9.9s-.08-.04-.08-.09v-.47s.04-.09.08-.09h1.84c1.12,0,1.76-.47,1.76-1.89v-15.15c0-1.46-.68-1.97-1.72-1.97h-1.88s-.08-.04-.08-.09v-.39s.04-.09.08-.09h6.62s.08.04.08.09v2.32c0,1.37.84,1.89,1.96,1.16,3.23-2.06,5.63-3.56,7.18-3.56,1.04,0,1.44.94,1.44,1.8v15.79c0,1.46.68,1.97,1.76,1.97h1.84Z"/><path class="cls-1" d="m189,12.53c0,1.46-.92,2.36-2.11,2.36s-2-1.07-2-2.06c0-1.63,1.52-1.97,1.52-2.83,0-.3-.16-.52-.68-.52-.8,0-1.92.9-2.31,3-.16,1.03.04,1.76.2,2.7.12.56.16,1.12.16,1.72,0,4.51-3.39,7.29-7.38,7.29h-5.03c-1.88,0-2.59.73-2.59,1.89,0,1.24.72,1.84,2.99,1.84h8.38c3.27,0,5.43,1.24,5.43,5.45s-3.43,5.88-9.1,5.88c-7.3,0-9.18-1.89-9.18-4.21,0-1.76.96-2.66,3.23-3.39.4-.13.4-.51,0-.64-1.48-.47-2.55-1.54-2.55-3.69,0-2.66,1.36-3.65,3.39-3.65.68,0,.96-.3-.08-1.2-1.44-1.24-2.31-3.17-2.31-5.58,0-4.93,3.07-7.72,7.42-7.72,2.07,0,3.95.73,5.31,2.1.88.9,1,.64,1.84-.81.6-1.03,1.48-1.67,2.39-1.67,1.72,0,3.07,1.85,3.07,3.73Zm-13.33,18.71c-5.27,0-6.18,2.06-6.18,3.43,0,3.52,3.43,3.95,6.98,3.95,4.59,0,7.94-1.29,7.94-4.68,0-1.46-1-2.7-3.43-2.7h-5.31Zm4.35-14.33c0-5.92-1.04-7.08-3.63-7.08-2.95,0-3.67,1.16-3.67,7.08,0,5.49.72,6.78,3.67,6.78,2.59,0,3.63-1.29,3.63-6.78Z"/><path class="cls-1" d="m212.43,21.02h.56s.08.04.08.09c0,7.55-2,9.57-5.47,9.57-3.27,0-5.47-2.4-5.47-6.69l-.04-13.39h-4.55s-.08-.04-.08-.09v-.6s.04-.09.08-.09l1.4.21c3.95,0,5.11-4.03,5.71-7.85,0-.04.04-.09.08-.09h.4s.08.04.08.09v7.89l7.74-.26s.08.04.08.09v.86s-.04.09-.08.09h-6.14c-1.04,0-1.6.6-1.6,1.72v9.53c0,4.89,1.4,7.12,3.63,7.12,1.6,0,3.47-.94,3.51-8.11,0-.04.04-.09.08-.09Z"/><path class="cls-1" d="m234.18,29.39s.08.04.08.09v.47s-.04.09-.08.09h-9.9s-.08-.04-.08-.09v-.73s.04-.09.08-.09l1.83.34c1.12,0,1.36-.56,1.36-1.97v-14.16c0-1.07-.6-1.5-1.2-1.5-.92,0-3.23,1.5-5.19,2.79-.76.51-1.08,1.16-1.08,2.06v10.81c0,1.46.28,1.97,1.36,1.97l1.83-.34s.08.04.08.09v.73s-.04.09-.08.09h-9.9s-.08-.04-.08-.09v-.47s.04-.09.08-.09l1.84.04c1.12,0,1.76-.51,1.76-1.93V2.53c0-1.46-.68-1.89-1.72-1.89h-1.88s-.08-.04-.08-.09V.09s.04-.09.08-.09h6.62s.08.04.08.09v12.14c0,1.37.84,1.89,1.96,1.16,3.23-2.06,5.63-3.56,7.18-3.56,1.04,0,1.44.94,1.44,1.8v15.79c0,1.46.68,1.97,1.76,1.97h1.84Z"/><path class="cls-1" d="m249.43,20.25h-10.65c-1.04,0-1.6.64-1.6,1.8.2,6.35,1.52,7.98,4.99,7.98,2.79,0,5.71-2.19,6.34-8.07,0-.04.04-.09.08-.09h.56s.08.04.08.09c-.64,5.96-3.51,8.71-7.38,8.71-4.95,0-8.42-3.86-8.42-10.77,0-6.22,3.47-10.73,8.06-10.73s8.02,4.5,8.02,10.51v.47s-.04.09-.08.09Zm-5.75-.47c1.2.04,1.83-1.07,1.83-2.45v-3c0-3.09-1.36-4.5-4.03-4.5-2.91,0-4.11,1.72-4.27,7.94-.04,1.16.56,1.8,1.56,1.85l4.91.17Z"/><path class="cls-1" d="m99.55,54.55h-.6s-.08-.04-.08-.09c-1.92-8.07-5.39-12.87-10.13-12.87s-6.58,3.13-6.58,14.93,1.64,14.55,7.1,14.55,9.82-4.03,9.86-13.34c0-.04.04-.09.08-.09h.6s.08.04.08.09c-.04,9.35-4.23,14.12-10.61,14.12-6.7,0-11.77-6.14-11.77-15.32s5.07-15.66,11.25-15.66c4.75,0,6.14,3.86,8.1,3.86,1.16,0,1.92-1.67,1.96-3.86,0-.04.04-.09.08-.09h.56s.08,0,.08.09l-.32,8.58.44,5.02c0,.09-.04.09-.08.09Z"/><path class="cls-1" d="m101.95,60.77c0-6.22,3.47-10.73,8.06-10.73s8.02,4.5,8.02,10.73-3.47,10.77-8.02,10.77-8.06-4.5-8.06-10.77Zm12.33,0c0-8.07-1.12-10.21-4.27-10.21s-4.31,2.15-4.31,10.21,1.12,10.25,4.31,10.25,4.27-2.15,4.27-10.25Z"/><path class="cls-1" d="m138.94,70.25s.08.04.08.09v.47s-.04.09-.08.09h-6.62s-.08-.04-.08-.09v-1.76c0-1.54-.36-1.59-1.12-.21-.96,1.67-2.23,2.7-3.83,2.7-4.55,0-7.22-5.15-7.22-10.73s2.67-10.77,7.22-10.77c1.76,0,3.03.81,3.87,2.19.8,1.24,1.08,1.24,1.08-.26v-8.58c0-1.42-.64-1.97-1.76-1.97l-3.03.34s-.08-.04-.08-.09v-.73s.04-.09.08-.09h7.82s.08.04.08.09v27.33c0,1.46.68,1.97,1.72,1.97h1.88Zm-6.7-9.44c0-7.47-1.92-10.13-4.95-10.13-2.23,0-3.47,2.66-3.47,10.13s1.44,10.08,3.47,10.08c2.16,0,4.95-2.66,4.95-10.08Z"/><path class="cls-1" d="m154.14,61.11h-10.65c-1.04,0-1.6.64-1.6,1.8.2,6.35,1.52,7.98,4.99,7.98,2.79,0,5.71-2.19,6.34-8.07,0-.04.04-.09.08-.09h.56s.08.04.08.09c-.64,5.96-3.51,8.71-7.38,8.71-4.95,0-8.42-3.86-8.42-10.77,0-6.22,3.47-10.73,8.06-10.73s8.02,4.5,8.02,10.51v.47s-.04.09-.08.09Zm-5.75-.47c1.2.04,1.83-1.07,1.83-2.45v-3c0-3.09-1.36-4.5-4.03-4.5-2.91,0-4.11,1.72-4.27,7.94-.04,1.16.56,1.8,1.56,1.85l4.91.17Z"/><path class="cls-1" d="m169.39,52.87c0-1.07-2-2.19-4.51-2.19-3.79,0-4.91,2.02-4.91,10.08s1.12,10.13,5.11,10.13c3.07,0,6.23-3.05,6.26-9.44,0-.04.04-.09.08-.09h.52s.08.04.08.09c-.04,6.39-3.35,10.08-6.94,10.08-5.39,0-8.86-3.56-8.86-10.77,0-6.22,3.47-10.73,8.66-10.73,3.59,0,6.9,1.89,6.9,5.88,0,1.89-1.24,3.43-2.63,3.43-1.68,0-2.95-1.03-2.95-2.66,0-2.83,3.19-2.27,3.19-3.82Z"/></g></svg>