<?xml version="1.0" encoding="UTF-8"?><svg id="Layer_2" xmlns="http://www.w3.org/2000/svg" viewBox="0 0 262.2 40.08"><defs><style>.cls-1{fill:#fff;}</style></defs><g id="Layer_1-2"><path class="cls-1" d="m0,1.37v-.47s.04-.09.08-.09h22.07s.08,0,.08.09l-.2,12.74c0,.09-.04.09-.08.09h-.68s-.08,0-.08-.09l.32-3.9c0-3.99-3.51-8.24-7.26-8.24h-3.95c-1.28,0-1.99.82-1.99,1.72v8.97c0,1.93.72,3,2.07,3,2.79,0,4.55-3.65,4.27-10,0-.04.04-.09.08-.09h.52s.08.04.08.09v20.64s-.04.09-.08.09h-.52s-.08-.04-.08-.09c.28-6.39-1.48-10-4.27-10-1.32,0-2.07,1.07-2.07,3v9.48c0,1.42.72,1.97,1.83,1.97l4.63-.34s.08.04.08.09v.73s-.04.09-.08.09H.08s-.08-.04-.08-.09v-.47s.04-.09.08-.09h3.03c1.12,0,1.76-.47,1.76-1.89V3.35c0-1.46-.68-1.89-1.72-1.89H.08s-.08-.04-.08-.09Z"/><path class="cls-1" d="m22.31,20.72c0-6.22,3.47-10.73,8.06-10.73s8.02,4.5,8.02,10.73-3.47,10.77-8.02,10.77-8.06-4.5-8.06-10.77Zm12.33,0c0-8.07-1.12-10.21-4.27-10.21s-4.31,2.15-4.31,10.21,1.12,10.25,4.31,10.25,4.27-2.15,4.27-10.25Z"/><path class="cls-1" d="m48.09,30.21s.08.04.08.09v.47s-.04.09-.08.09h-10.29s-.08-.04-.08-.09v-.47s.04-.09.08-.09h1.83c1.12,0,1.76-.56,1.76-1.97V3.43c0-1.46-.68-1.97-1.72-1.97h-1.88s-.08-.04-.08-.09v-.47s.04-.09.08-.09h6.62s.08.04.08.09v27.33c0,1.46.68,1.97,1.76,1.97h1.84Z"/><path class="cls-1" d="m66.6,30.21s.08.04.08.09v.47s-.04.09-.08.09h-6.62s-.08-.04-.08-.09v-1.76c0-1.54-.36-1.59-1.12-.21-.96,1.67-2.23,2.7-3.83,2.7-4.55,0-7.22-5.15-7.22-10.73s2.67-10.77,7.22-10.77c1.76,0,3.03.81,3.87,2.19.8,1.24,1.08,1.24,1.08-.26V3.35c0-1.42-.64-1.97-1.76-1.97l-3.03.34s-.08-.04-.08-.09v-.73s.04-.09.08-.09h7.82s.08.04.08.09v27.33c0,1.46.68,1.97,1.72,1.97h1.88Zm-6.7-9.44c0-7.47-1.92-10.13-4.95-10.13-2.23,0-3.47,2.66-3.47,10.13s1.44,10.08,3.47,10.08c2.16,0,4.95-2.66,4.95-10.08Z"/><path class="cls-1" d="m76.34,30.21s.08.04.08.09v.47s-.04.09-.08.09h-10.29s-.08-.04-.08-.09v-.47s.04-.09.08-.09h1.84c1.12,0,1.76-.56,1.76-1.97v-15.06c0-1.46-.68-1.97-1.72-1.97h-1.88s-.08-.04-.08-.09v-.39s.04-.09.08-.09h6.62s.08.04.08.09v17.51c0,1.46.68,1.97,1.75,1.97h1.84Zm-8.22-26.82c0-1.42,1.08-2.57,2.43-2.57s2.39,1.16,2.39,2.57-1.08,2.62-2.39,2.62-2.43-1.16-2.43-2.62Z"/><path class="cls-1" d="m96.74,30.21s.08.04.08.09v.47s-.04.09-.08.09h-9.9s-.08-.04-.08-.09v-.6s.04-.09.08-.09l1.83.21c1.12,0,1.36-.56,1.36-1.97v-14.16c0-1.07-.6-1.5-1.2-1.5-.92,0-3.23,1.5-5.19,2.79-.76.51-1.08,1.16-1.08,2.06v10.81c0,1.46.28,1.97,1.36,1.97l1.83-.21s.08.04.08.09v.6s-.04.09-.08.09h-9.9s-.08-.04-.08-.09v-.47s.04-.09.08-.09h1.84c1.12,0,1.76-.47,1.76-1.89v-15.15c0-1.46-.68-1.97-1.72-1.97h-1.88s-.08-.04-.08-.09v-.39s.04-.09.08-.09h6.62s.08.04.08.09v2.32c0,1.37.84,1.89,1.96,1.16,3.23-2.06,5.63-3.56,7.18-3.56,1.04,0,1.44.94,1.44,1.8v15.79c0,1.46.68,1.97,1.76,1.97h1.84Z"/><path class="cls-1" d="m118.84,13.34c0,1.46-.92,2.36-2.11,2.36s-2-1.07-2-2.06c0-1.63,1.52-1.97,1.52-2.83,0-.3-.16-.52-.68-.52-.8,0-1.92.9-2.31,3-.16,1.03.04,1.76.2,2.7.12.56.16,1.12.16,1.72,0,4.51-3.39,7.29-7.38,7.29h-5.03c-1.88,0-2.59.73-2.59,1.89,0,1.24.72,1.84,2.99,1.84h8.38c3.27,0,5.43,1.24,5.43,5.45s-3.43,5.88-9.1,5.88c-7.3,0-9.18-1.89-9.18-4.21,0-1.76.96-2.66,3.23-3.39.4-.13.4-.51,0-.64-1.48-.47-2.55-1.54-2.55-3.69,0-2.66,1.36-3.65,3.39-3.65.68,0,.96-.3-.08-1.2-1.44-1.24-2.31-3.17-2.31-5.58,0-4.93,3.07-7.72,7.42-7.72,2.07,0,3.95.73,5.31,2.1.88.9,1,.64,1.84-.81.6-1.03,1.48-1.67,2.39-1.67,1.72,0,3.07,1.85,3.07,3.73Zm-13.33,18.71c-5.27,0-6.18,2.06-6.18,3.43,0,3.52,3.43,3.95,6.98,3.95,4.59,0,7.94-1.29,7.94-4.68,0-1.46-1-2.7-3.43-2.7h-5.31Zm4.35-14.33c0-5.92-1.04-7.08-3.63-7.08-2.95,0-3.67,1.16-3.67,7.08,0,5.49.72,6.78,3.67,6.78,2.59,0,3.63-1.29,3.63-6.78Z"/><path class="cls-1" d="m139.24,21.84h.56s.08.04.08.09c0,7.55-2,9.57-5.47,9.57-3.27,0-5.47-2.4-5.47-6.69l-.04-13.39h-4.55s-.08-.04-.08-.09v-.6s.04-.09.08-.09l1.4.21c3.95,0,5.11-4.03,5.71-7.85,0-.04.04-.09.08-.09h.4s.08.04.08.09v7.89l7.74-.26s.08.04.08.09v.86s-.04.09-.08.09h-6.14c-1.04,0-1.6.6-1.6,1.72v9.53c0,4.89,1.4,7.12,3.63,7.12,1.6,0,3.47-.94,3.51-8.11,0-.04.04-.09.08-.09Z"/><path class="cls-1" d="m160.91,30.21s.08.04.08.09v.47s-.04.09-.08.09h-9.9s-.08-.04-.08-.09v-.73s.04-.09.08-.09l1.83.34c1.12,0,1.36-.56,1.36-1.97v-14.16c0-1.07-.6-1.5-1.2-1.5-.92,0-3.23,1.5-5.19,2.79-.76.51-1.08,1.16-1.08,2.06v10.81c0,1.46.28,1.97,1.36,1.97l1.83-.34s.08.04.08.09v.73s-.04.09-.08.09h-9.9s-.08-.04-.08-.09v-.47s.04-.09.08-.09l1.84.04c1.12,0,1.76-.51,1.76-1.93V3.35c0-1.46-.68-1.89-1.72-1.89h-1.88s-.08-.04-.08-.09v-.47s.04-.09.08-.09h6.62s.08.04.08.09v12.14c0,1.37.84,1.89,1.96,1.16,3.23-2.06,5.63-3.56,7.18-3.56,1.04,0,1.44.94,1.44,1.8v15.79c0,1.46.68,1.97,1.76,1.97h1.84Z"/><path class="cls-1" d="m176.07,21.07h-10.65c-1.04,0-1.6.64-1.6,1.8.2,6.35,1.52,7.98,4.99,7.98,2.79,0,5.71-2.19,6.34-8.07,0-.04.04-.09.08-.09h.56s.08.04.08.09c-.64,5.96-3.51,8.71-7.38,8.71-4.95,0-8.42-3.86-8.42-10.77,0-6.22,3.47-10.73,8.06-10.73s8.02,4.5,8.02,10.51v.47s-.04.09-.08.09Zm-5.75-.47c1.2.04,1.83-1.07,1.83-2.45v-3c0-3.09-1.36-4.5-4.03-4.5-2.91,0-4.11,1.72-4.27,7.94-.04,1.16.56,1.8,1.56,1.85l4.91.17Z"/><path class="cls-1" d="m196.75,17.29v-.73s.04-.09.08-.09h13.09s.08.04.08.09v.51s-.04.09-.08.09h-2.24c-1.75,0-1.75.86-1.75,2.53v11.71s-.04.09-.08.09h-.48s-.08-.04-.08-.04l-.8-.99c-1.16-1.42-2.35-1.37-3.91-.39-1.48.94-3.23,1.42-5.19,1.42-6.7,0-11.77-6.56-11.77-15.75S188.69.09,194.87.09c4.75,0,6.14,3.86,8.1,3.86,1.16,0,1.92-1.67,1.96-3.86,0-.04.04-.09.08-.09h.56s.08,0,.08.09l-.32,8.58.44,5.02c0,.09-.04.09-.08.09h-.6s-.08-.04-.08-.09c-1.92-8.07-5.39-12.87-10.13-12.87s-6.58,3.13-6.58,14.93,1.64,14.98,7.1,14.98c2.07,0,3.99-.64,5.55-1.93,1.16-.94,1.48-2.1,1.48-3.6v-6.18c0-1.42-.64-1.97-1.76-1.97l-3.83.34s-.08-.04-.08-.09Z"/><path class="cls-1" d="m226,22.18c0-.09.04-.09.08-.09h.72s.08.04.08.09v6.22c0,2.02-1,2.49-3.27,2.49-2.79,0-3.31-1.07-3.55-2.19-.28-1.29-.84-1.42-1.96-.64-3.03,1.93-5.31,3.39-6.78,3.39-1.04,0-1.84-.6-1.84-3.6,0-3.48,2.12-6.31,7.66-8.67,2.04-.9,2.91-1.63,2.91-4.08v-1.97c0-1.76-1.28-2.49-3.27-2.49-2.2,0-3.79.77-3.75,1.8.08,1.67,2.19.9,2.19,3.05,0,1.16-1.04,2.32-2.31,2.32-1.4,0-2.23-1.29-2.23-2.49,0-3.3,2.39-5.32,6.11-5.32,4.99,0,6.38,1.42,6.38,3.17v15.45c0,1.16.72,1.5,1.64,1.5s1.68-.56,1.6-1.72l-.4-6.22Zm-7.02,4.72c.76-.47,1.08-1.12,1.08-2.06v-4.29c0-1.42-.76-1.97-2.67-1.07-1.79.82-4.59,3.43-4.59,7.68,0,1.76.8,2.19,1.4,2.19.88,0,2.91-1.24,4.79-2.45Z"/><path class="cls-1" d="m243.72,11.24l-9.58,15.7c-.96,1.59,0,3.35,1.28,3.35h2.67c2.55,0,5.71-1.2,5.71-3.9l-.08-3.05c0-.09.04-.09.08-.09h.6s.08,0,.08.09l-.4,7.42c0,.09-.04.09-.08.09h-15.28s-.08-.04-.08-.09v-.43s.04-.09.04-.09l9.7-15.7c.92-1.5,0-3.26-1.68-3.26h-1.4c-2.15,0-5.31,1.12-5.31,3.82l.08,2.62c0,.09-.04.09-.08.09h-.6s-.08,0-.08-.09l.4-6.99c0-.09.04-.09.08-.09h13.89s.08.04.08.09v.43s-.04.09-.04.09Z"/><path class="cls-1" d="m262.12,21.07h-10.65c-1.04,0-1.6.64-1.6,1.8.2,6.35,1.52,7.98,4.99,7.98,2.79,0,5.71-2.19,6.34-8.07,0-.04.04-.09.08-.09h.56s.08.04.08.09c-.64,5.96-3.51,8.71-7.38,8.71-4.95,0-8.42-3.86-8.42-10.77,0-6.22,3.47-10.73,8.06-10.73s8.02,4.5,8.02,10.51v.47s-.04.09-.08.09Zm-5.75-.47c1.2.04,1.83-1.07,1.83-2.45v-3c0-3.09-1.36-4.5-4.03-4.5-2.91,0-4.11,1.72-4.27,7.94-.04,1.16.56,1.8,1.56,1.85l4.91.17Z"/></g></svg>