<?xml version="1.0" encoding="UTF-8"?><svg id="Layer_2" xmlns="http://www.w3.org/2000/svg" viewBox="0 0 12.61 30.04"><defs><style>.cls-1{fill:#fff;}</style></defs><g id="Layer_1-2"><path class="cls-1" d="m8.06,27.5c0,1.42.64,1.93,1.76,1.93l2.71-.04s.08.04.08.09v.47s-.04.09-.08.09H.08s-.08-.04-.08-.09v-.47s.04-.09.08-.09h2.71c1.12,0,1.75-.47,1.75-1.89V2.53c0-1.42-.64-1.89-1.75-1.89H.08s-.08-.04-.08-.09V.09s.04-.09.08-.09h12.45s.08.04.08.09v.47s-.04.09-.08.09h-2.71c-1.12,0-1.76.47-1.76,1.89v24.97Z"/></g></svg>