<?xml version="1.0" encoding="UTF-8"?><svg id="Layer_2" xmlns="http://www.w3.org/2000/svg" viewBox="0 0 214.03 80.12"><defs><style>.cls-1{fill:#fff;}</style></defs><g id="Layer_1-2"><path class="cls-1" d="m6.41,55.79c0-9.1,5.07-15.66,11.77-15.66s11.73,6.56,11.73,15.66-5.07,15.75-11.73,15.75-11.77-6.56-11.77-15.75Zm18.83,0c0-11.8-1.64-14.93-7.06-14.93s-7.1,3.13-7.1,14.93,1.64,14.97,7.1,14.97,7.06-3.13,7.06-14.97Z"/><path class="cls-1" d="m48.55,60.81c0,5.58-2.67,10.73-7.22,10.73-1.6,0-2.87-1.03-3.83-2.7-.56-.94-1.12-.77-1.12.21v1.76s-.04.09-.08.09h-6.62s-.08-.04-.08-.09v-.47s.04-.09.08-.09h1.88c1.04,0,1.72-.51,1.72-1.97v-24.8c0-1.42-.64-1.97-1.76-1.97h-1.83s-.08-.04-.08-.09v-.47s.04-.09.08-.09h6.62s.08.04.08.09v11.88c0,.64.36.77.68.09.68-1.5,2.07-2.88,4.27-2.88,4.55,0,7.22,5.15,7.22,10.77Zm-3.75,0c0-7.47-1.24-10.13-3.47-10.13-3.03,0-4.95,2.66-4.95,10.13s2.79,10.08,4.95,10.08c2.04,0,3.47-2.66,3.47-10.08Z"/><path class="cls-1" d="m61.04,52.27c.84,0,1.4-1.2,1.6-2.19,0-.04.04-.09.08-.09h.28s.08,0,.08.09l-.24,5.02.28,3.52c0,.09-.04.09-.08.09h-.24s-.08-.04-.12-.09c-1.12-3.69-3.83-7.94-6.86-7.94-2.35,0-3.79,1.59-3.79,3.86s1.96,2.96,6.26,3.82c4.83.99,6.42,3.39,6.42,6.91,0,4.08-2.67,6.26-5.47,6.26-3.55,0-4.55-2.92-6.18-2.92-.8,0-1.36.47-1.56,2.19,0,.04-.04.09-.08.09h-.28s-.08,0-.08-.09l.36-5.49-.28-3.48c0-.09.04-.09.08-.09l.32-.04s.08.04.08.09c1.68,6.52,4.99,9.1,7.7,9.1,2.23,0,3.87-1.89,3.87-4.03,0-2.79-1.24-3.99-5.95-4.85-3.51-.64-6.7-1.59-6.7-6.14,0-3.73,2.39-5.84,5.19-5.84,2.99,0,4.03,2.23,5.31,2.23Z"/><path class="cls-1" d="m82.75,61.11h-10.65c-1.04,0-1.6.64-1.6,1.8.2,6.35,1.52,7.98,4.99,7.98,2.79,0,5.71-2.19,6.34-8.07,0-.04.04-.09.08-.09h.56s.08.04.08.09c-.64,5.96-3.51,8.71-7.38,8.71-4.95,0-8.42-3.86-8.42-10.77,0-6.22,3.47-10.73,8.06-10.73s8.02,4.51,8.02,10.51v.47s-.04.09-.08.09Zm-5.75-.47c1.2.04,1.83-1.07,1.83-2.45v-3c0-3.09-1.36-4.51-4.03-4.51-2.91,0-4.11,1.72-4.27,7.94-.04,1.16.56,1.8,1.56,1.84l4.91.17Z"/><path class="cls-1" d="m99.31,54.38c0,1.54-1.16,3-2.59,3-.92,0-2.16-.56-2.16-2.06,0-2.19,2.04-1.8,2.04-3.26,0-.69-.36-1.16-1.04-1.16-1,0-2.79,1.42-4.87,3.3-.48.47-.68.94-.68,1.59v12.57c0,1.46.68,1.97,1.76,1.97l3.43-.34s.08.04.08.09v.73s-.04.09-.08.09h-11.89s-.08-.04-.08-.09v-.47s.04-.09.08-.09h1.83c1.12,0,1.76-.47,1.76-1.89v-15.15c0-1.46-.68-1.97-1.72-1.97h-1.88s-.08-.04-.08-.09v-.39s.04-.09.08-.09h6.62s.08.04.08.09v1.16c0,1.07,1,1.12,2.23.13,1.28-1.07,2.43-1.85,3.43-1.85,1.92,0,3.63,1.54,3.63,4.16Z"/><path class="cls-1" d="m99.75,51.24s-.08-.04-.08-.09v-.39s.04-.09.08-.09h9.66s.08.04.08.09v.73s-.04.09-.08.09l-2.07-.34c-1.12,0-1.76.56-1.2,1.97l4.59,11.84c.4,1.07,1.16,1.07,1.56-.04l1.36-3.65c1.88-5.15,2.87-10.21.16-10.13l-2.12.34s-.08-.04-.08-.09v-.73s.04-.09.08-.09h9.18s.08.04.08.09v.39s-.04.09-.08.09h-1.32c-1.52,0-3.51,5.49-5.19,10.13l-2.08,5.83c-.2.6-.2,1.12,0,1.72l.68,1.89s0,.09-.04.09h-3.03s-.12-.04-.12-.09l-6.82-17.59c-.56-1.42-1.2-1.97-2.31-1.97h-.88Z"/><path class="cls-1" d="m137.03,62.23c0-.09.04-.09.08-.09h.72s.08.04.08.09v6.22c0,2.02-1,2.49-3.27,2.49-2.79,0-3.31-1.07-3.55-2.19-.28-1.29-.84-1.42-1.96-.64-3.03,1.93-5.31,3.39-6.78,3.39-1.04,0-1.84-.6-1.84-3.6,0-3.48,2.12-6.31,7.66-8.67,2.04-.9,2.91-1.63,2.91-4.08v-1.97c0-1.76-1.28-2.49-3.27-2.49-2.19,0-3.79.77-3.75,1.8.08,1.67,2.19.9,2.19,3.05,0,1.16-1.04,2.32-2.31,2.32-1.4,0-2.23-1.29-2.23-2.49,0-3.3,2.39-5.32,6.1-5.32,4.99,0,6.38,1.42,6.38,3.18v15.45c0,1.16.72,1.5,1.64,1.5s1.68-.56,1.6-1.72l-.4-6.22Zm-7.02,4.72c.76-.47,1.08-1.12,1.08-2.06v-4.29c0-1.42-.76-1.97-2.67-1.07-1.79.81-4.59,3.43-4.59,7.68,0,1.76.8,2.19,1.4,2.19.88,0,2.91-1.24,4.79-2.45Z"/><path class="cls-1" d="m151.19,61.88h.56s.08.04.08.09c0,7.55-2,9.57-5.47,9.57-3.27,0-5.47-2.4-5.47-6.69l-.04-13.39h-4.55s-.08-.04-.08-.09v-.6s.04-.09.08-.09l1.4.21c3.95,0,5.11-4.03,5.71-7.85,0-.04.04-.09.08-.09h.4s.08.04.08.09v7.9l7.74-.26s.08.04.08.09v.86s-.04.09-.08.09h-6.14c-1.04,0-1.6.6-1.6,1.72v9.53c0,4.89,1.4,7.12,3.63,7.12,1.6,0,3.47-.94,3.51-8.11,0-.04.04-.09.08-.09Z"/><path class="cls-1" d="m153.03,60.77c0-6.22,3.47-10.73,8.06-10.73s8.02,4.51,8.02,10.73-3.47,10.77-8.02,10.77-8.06-4.5-8.06-10.77Zm12.33,0c0-8.07-1.12-10.21-4.27-10.21s-4.31,2.15-4.31,10.21,1.12,10.25,4.31,10.25,4.27-2.15,4.27-10.25Z"/><path class="cls-1" d="m185.12,54.38c0,1.54-1.16,3-2.59,3-.92,0-2.16-.56-2.16-2.06,0-2.19,2.04-1.8,2.04-3.26,0-.69-.36-1.16-1.04-1.16-1,0-2.79,1.42-4.87,3.3-.48.47-.68.94-.68,1.59v12.57c0,1.46.68,1.97,1.76,1.97l3.43-.34s.08.04.08.09v.73s-.04.09-.08.09h-11.89s-.08-.04-.08-.09v-.47s.04-.09.08-.09h1.83c1.12,0,1.76-.47,1.76-1.89v-15.15c0-1.46-.68-1.97-1.72-1.97h-1.88s-.08-.04-.08-.09v-.39s.04-.09.08-.09h6.62s.08.04.08.09v1.16c0,1.07,1,1.12,2.23.13,1.28-1.07,2.43-1.85,3.43-1.85,1.92,0,3.63,1.54,3.63,4.16Z"/><path class="cls-1" d="m197.49,51.5v-.73s.04-.09.08-.09h9.98s.08.04.08.09v.39s-.04.09-.08.09h-2.11c-1.52,0-3.51,5.49-5.19,10.13l-3.31,9.14c-.28.77-.36,1.33-.36,2.1,0,5.36-1.6,7.51-4.47,7.51-3.31,0-5.63-2.02-5.63-5.32,0-1.2.84-2.49,2.24-2.49,1.28,0,2.31,1.16,2.31,2.32,0,2.15-2.11,1.37-2.19,3.05-.04,1.03,1.48,1.8,3.27,1.8,2.47,0,3.75-2.1,3.75-6.91,0-.77-.12-1.37-.4-2.15l-6.62-17.21c-.56-1.42-.8-1.97-1.92-1.97h-2.08s-.08-.04-.08-.09v-.39s.04-.09.08-.09h10.45s.08.04.08.09v.73s-.04.09-.08.09l-2.47-.34c-1.12,0-1.36.56-.8,1.97l4.31,11.16c.56,1.46,1.6,1.37,2.11-.04l1.08-2.96c1.88-5.15,3.27-10.21.56-10.13l-2.51.34s-.08-.04-.08-.09Z"/><path class="cls-1" d="m8.06,27.5c0,1.42.64,1.93,1.76,1.93l2.71-.04s.08.04.08.09v.47s-.04.09-.08.09H.08s-.08-.04-.08-.09v-.47s.04-.09.08-.09h2.71c1.12,0,1.75-.47,1.75-1.89V2.53c0-1.42-.64-1.89-1.75-1.89H.08s-.08-.04-.08-.09V.09s.04-.09.08-.09h12.45s.08.04.08.09v.47s-.04.09-.08.09h-2.71c-1.12,0-1.76.47-1.76,1.89v24.97Z"/><path class="cls-1" d="m33.56,29.39s.08.04.08.09v.47s-.04.09-.08.09h-9.9s-.08-.04-.08-.09v-.6s.04-.09.08-.09l1.83.21c1.12,0,1.36-.56,1.36-1.97v-14.16c0-1.07-.6-1.5-1.2-1.5-.92,0-3.23,1.5-5.19,2.79-.76.52-1.08,1.16-1.08,2.06v10.81c0,1.46.28,1.97,1.36,1.97l1.83-.21s.08.04.08.09v.6s-.04.09-.08.09h-9.9s-.08-.04-.08-.09v-.47s.04-.09.08-.09h1.84c1.12,0,1.76-.47,1.76-1.89v-15.15c0-1.46-.68-1.97-1.72-1.97h-1.88s-.08-.04-.08-.09v-.39s.04-.09.08-.09h6.62s.08.04.08.09v2.32c0,1.37.84,1.89,1.96,1.16,3.23-2.06,5.63-3.56,7.18-3.56,1.04,0,1.44.94,1.44,1.8v15.79c0,1.46.68,1.97,1.76,1.97h1.84Z"/><path class="cls-1" d="m31.65,10.38s-.08-.04-.08-.09v-.39s.04-.09.08-.09h9.66s.08.04.08.09v.73s-.04.09-.08.09l-2.07-.34c-1.12,0-1.76.56-1.2,1.97l4.59,11.84c.4,1.07,1.16,1.07,1.56-.04l1.36-3.65c1.88-5.15,2.87-10.21.16-10.13l-2.12.34s-.08-.04-.08-.09v-.73s.04-.09.08-.09h9.18s.08.04.08.09v.39s-.04.09-.08.09h-1.32c-1.52,0-3.51,5.49-5.19,10.13l-2.08,5.83c-.2.6-.2,1.12,0,1.72l.68,1.89s0,.09-.04.09h-3.03s-.12-.04-.12-.09l-6.82-17.59c-.56-1.42-1.2-1.97-2.31-1.97h-.88Z"/><path class="cls-1" d="m67.4,20.25h-10.65c-1.04,0-1.6.64-1.6,1.8.2,6.35,1.52,7.98,4.99,7.98,2.79,0,5.71-2.19,6.34-8.07,0-.04.04-.09.08-.09h.56s.08.04.08.09c-.64,5.96-3.51,8.71-7.38,8.71-4.95,0-8.42-3.86-8.42-10.77,0-6.22,3.47-10.73,8.06-10.73s8.02,4.51,8.02,10.51v.47s-.04.09-.08.09Zm-5.75-.47c1.2.04,1.83-1.07,1.83-2.45v-3c0-3.09-1.36-4.51-4.03-4.51-2.91,0-4.11,1.72-4.27,7.94-.04,1.16.56,1.8,1.56,1.84l4.91.17Z"/><path class="cls-1" d="m83.37,13.52c0,1.54-1.16,3-2.59,3-.92,0-2.16-.56-2.16-2.06,0-2.19,2.04-1.8,2.04-3.26,0-.69-.36-1.16-1.04-1.16-1,0-2.79,1.42-4.87,3.3-.48.47-.68.94-.68,1.59v12.57c0,1.46.68,1.97,1.76,1.97l3.43-.34s.08.04.08.09v.73s-.04.09-.08.09h-11.89s-.08-.04-.08-.09v-.47s.04-.09.08-.09h1.83c1.12,0,1.76-.47,1.76-1.89v-15.15c0-1.46-.68-1.97-1.72-1.97h-1.88s-.08-.04-.08-.09v-.39s.04-.09.08-.09h6.62s.08.04.08.09v1.16c0,1.07,1,1.12,2.23.13,1.28-1.07,2.43-1.85,3.43-1.85,1.92,0,3.63,1.54,3.63,4.16Z"/><path class="cls-1" d="m98.89,21.02h.56s.08.04.08.09c0,7.55-2,9.57-5.47,9.57-3.27,0-5.47-2.4-5.47-6.69l-.04-13.39h-4.55s-.08-.04-.08-.09v-.6s.04-.09.08-.09l1.4.21c3.95,0,5.11-4.03,5.71-7.85,0-.04.04-.09.08-.09h.4s.08.04.08.09v7.9l7.74-.26s.08.04.08.09v.86s-.04.09-.08.09h-6.14c-1.04,0-1.6.6-1.6,1.72v9.53c0,4.89,1.4,7.12,3.63,7.12,1.6,0,3.47-.94,3.51-8.11,0-.04.04-.09.08-.09Z"/><path class="cls-1" d="m110.9,29.39s.08.04.08.09v.47s-.04.09-.08.09h-10.29s-.08-.04-.08-.09v-.47s.04-.09.08-.09h1.84c1.12,0,1.76-.56,1.76-1.97v-15.06c0-1.46-.68-1.97-1.72-1.97h-1.88s-.08-.04-.08-.09v-.39s.04-.09.08-.09h6.62s.08.04.08.09v17.51c0,1.46.68,1.97,1.75,1.97h1.84Zm-8.22-26.82c0-1.42,1.08-2.57,2.43-2.57s2.39,1.16,2.39,2.57-1.08,2.62-2.39,2.62-2.43-1.16-2.43-2.62Z"/><path class="cls-1" d="m133.14,29.39s.08.04.08.09v.47s-.04.09-.08.09h-9.9s-.08-.04-.08-.09v-.6s.04-.09.08-.09l1.83.21c1.12,0,1.36-.56,1.36-1.97v-14.16c0-1.07-.6-1.5-1.2-1.5-.92,0-3.23,1.5-5.19,2.79-.76.52-1.08,1.16-1.08,2.06v10.81c0,1.46.28,1.97,1.36,1.97l1.83-.21s.08.04.08.09v.6s-.04.09-.08.09h-9.9s-.08-.04-.08-.09v-.47s.04-.09.08-.09h1.84c1.12,0,1.76-.47,1.76-1.89v-15.15c0-1.46-.68-1.97-1.72-1.97h-1.88s-.08-.04-.08-.09v-.39s.04-.09.08-.09h6.62s.08.04.08.09v2.32c0,1.37.84,1.89,1.96,1.16,3.23-2.06,5.63-3.56,7.18-3.56,1.04,0,1.44.94,1.44,1.8v15.79c0,1.46.68,1.97,1.76,1.97h1.84Z"/><path class="cls-1" d="m155.21,12.53c0,1.46-.92,2.36-2.11,2.36s-2-1.07-2-2.06c0-1.63,1.52-1.97,1.52-2.83,0-.3-.16-.51-.68-.51-.8,0-1.92.9-2.31,3-.16,1.03.04,1.76.2,2.7.12.56.16,1.12.16,1.72,0,4.51-3.39,7.29-7.38,7.29h-5.03c-1.88,0-2.59.73-2.59,1.89,0,1.24.72,1.84,2.99,1.84h8.38c3.27,0,5.43,1.24,5.43,5.45s-3.43,5.88-9.1,5.88c-7.3,0-9.18-1.89-9.18-4.2,0-1.76.96-2.66,3.23-3.39.4-.13.4-.52,0-.64-1.48-.47-2.55-1.54-2.55-3.69,0-2.66,1.36-3.65,3.39-3.65.68,0,.96-.3-.08-1.2-1.44-1.24-2.31-3.17-2.31-5.58,0-4.93,3.07-7.72,7.42-7.72,2.07,0,3.95.73,5.31,2.1.88.9,1,.64,1.84-.81.6-1.03,1.48-1.67,2.39-1.67,1.72,0,3.07,1.84,3.07,3.73Zm-13.33,18.71c-5.27,0-6.18,2.06-6.18,3.43,0,3.52,3.43,3.95,6.98,3.95,4.59,0,7.94-1.29,7.94-4.68,0-1.46-1-2.7-3.43-2.7h-5.31Zm4.35-14.33c0-5.92-1.04-7.08-3.63-7.08-2.95,0-3.67,1.16-3.67,7.08,0,5.49.72,6.78,3.67,6.78,2.59,0,3.63-1.29,3.63-6.78Z"/><path class="cls-1" d="m176.32,21.02h.56s.08.04.08.09c0,7.55-2,9.57-5.47,9.57-3.27,0-5.47-2.4-5.47-6.69l-.04-13.39h-4.55s-.08-.04-.08-.09v-.6s.04-.09.08-.09l1.4.21c3.95,0,5.11-4.03,5.71-7.85,0-.04.04-.09.08-.09h.4s.08.04.08.09v7.9l7.74-.26s.08.04.08.09v.86s-.04.09-.08.09h-6.14c-1.04,0-1.6.6-1.6,1.72v9.53c0,4.89,1.4,7.12,3.63,7.12,1.6,0,3.47-.94,3.51-8.11,0-.04.04-.09.08-.09Z"/><path class="cls-1" d="m197.99,29.39s.08.04.08.09v.47s-.04.09-.08.09h-9.9s-.08-.04-.08-.09v-.73s.04-.09.08-.09l1.83.34c1.12,0,1.36-.56,1.36-1.97v-14.16c0-1.07-.6-1.5-1.2-1.5-.92,0-3.23,1.5-5.19,2.79-.76.52-1.08,1.16-1.08,2.06v10.81c0,1.46.28,1.97,1.36,1.97l1.83-.34s.08.04.08.09v.73s-.04.09-.08.09h-9.9s-.08-.04-.08-.09v-.47s.04-.09.08-.09l1.84.04c1.12,0,1.76-.51,1.76-1.93V2.53c0-1.46-.68-1.89-1.72-1.89h-1.88s-.08-.04-.08-.09V.09s.04-.09.08-.09h6.62s.08.04.08.09v12.14c0,1.37.84,1.89,1.96,1.16,3.23-2.06,5.63-3.56,7.18-3.56,1.04,0,1.44.94,1.44,1.8v15.79c0,1.46.68,1.97,1.76,1.97h1.84Z"/><path class="cls-1" d="m213.95,20.25h-10.65c-1.04,0-1.6.64-1.6,1.8.2,6.35,1.52,7.98,4.99,7.98,2.79,0,5.71-2.19,6.34-8.07,0-.04.04-.09.08-.09h.56s.08.04.08.09c-.64,5.96-3.51,8.71-7.38,8.71-4.95,0-8.42-3.86-8.42-10.77,0-6.22,3.47-10.73,8.06-10.73s8.02,4.51,8.02,10.51v.47s-.04.09-.08.09Zm-5.75-.47c1.2.04,1.83-1.07,1.83-2.45v-3c0-3.09-1.36-4.51-4.03-4.51-2.91,0-4.11,1.72-4.27,7.94-.04,1.16.56,1.8,1.56,1.84l4.91.17Z"/></g></svg>