<?xml version="1.0" encoding="UTF-8"?><svg id="Layer_2" xmlns="http://www.w3.org/2000/svg" viewBox="0 0 36.71 30.04"><defs><style>.cls-1{fill:#fff;}</style></defs><g id="Layer_1-2"><path class="cls-1" d="m8.06,27.5c0,1.42.64,1.93,1.76,1.93l2.71-.04s.08.04.08.09v.47s-.04.09-.08.09H.08s-.08-.04-.08-.09v-.47s.04-.09.08-.09h2.71c1.12,0,1.75-.47,1.75-1.89V2.53c0-1.42-.64-1.89-1.75-1.89H.08s-.08-.04-.08-.09V.09s.04-.09.08-.09h12.45s.08.04.08.09v.47s-.04.09-.08.09h-2.71c-1.12,0-1.76.47-1.76,1.89v24.97Z"/><path class="cls-1" d="m30.29,7.38c.92-2.75.52-6.91-1.8-6.82l-2.11.21s-.08-.04-.08-.09V.09s.04-.09.08-.09h10.25s.08.04.08.09v.43s-.04.09-.08.09h-.72c-2.71,0-4.19,5.49-5.71,10.08l-3.95,12.19c-.16.56-.08,1.03.08,1.63l1.36,5.45q0,.09-.04.09h-3.63s-.12-.04-.12-.09L14.93,2.53c-.48-1.42-1.28-1.93-2.39-1.93h-1.68s-.08-.04-.08-.09V.09s.04-.09.08-.09h11.97s.08.04.08.09v.6s-.04.09-.08.09l-2.87-.21c-1.12,0-1.6.56-1.12,1.97l6.18,18.36c.24.82.56.82.88-.04l4.39-13.47Z"/></g></svg>