<?xml version="1.0" encoding="UTF-8"?><svg id="Layer_2" xmlns="http://www.w3.org/2000/svg" viewBox="0 0 316.55 31.07"><defs><style>.cls-1{fill:#fff;}</style></defs><g id="Layer_1-2"><path class="cls-1" d="m.08.09h15.16c6.11,0,9.58,2.92,9.58,8.02,0,5.79-3.47,8.75-9.58,8.75h-3.67c-1.8,0-2.79,1.07-2.79,3v7.72c0,1.42.64,1.97,1.76,1.97l4.23-.34s.08.04.08.09v.73s-.04.09-.08.09H.08s-.08-.04-.08-.09v-.47s.04-.09.08-.09h3.43c1.12,0,1.76-.56,1.76-1.97V2.7c0-1.46-.68-1.97-1.72-1.97H.08s-.08-.04-.08-.09V.17s.04-.09.08-.09Zm20.39,7.77c0-4.51-2.16-6.87-5.23-6.87h-3.75c-1.79,0-2.71,1.5-2.71,2.92v9.35c0,1.93,1.24,2.96,3.59,2.96h2.87c3.99,0,5.23-2.96,5.23-8.37Z"/><path class="cls-1" d="m24.7,20c0-6.22,3.47-10.73,8.06-10.73s8.02,4.5,8.02,10.73-3.47,10.77-8.02,10.77-8.06-4.5-8.06-10.77Zm12.33,0c0-8.07-1.12-10.21-4.27-10.21s-4.31,2.15-4.31,10.21,1.12,10.25,4.31,10.25,4.27-2.15,4.27-10.25Z"/><path class="cls-1" d="m52.88,11.5c.84,0,1.4-1.2,1.6-2.19,0-.04.04-.09.08-.09h.28s.08,0,.08.09l-.24,5.02.28,3.52c0,.09-.04.09-.08.09h-.24s-.08-.04-.12-.09c-1.12-3.69-3.83-7.94-6.86-7.94-2.35,0-3.79,1.59-3.79,3.86s1.96,2.96,6.26,3.82c4.83.99,6.42,3.39,6.42,6.91,0,4.08-2.67,6.26-5.47,6.26-3.55,0-4.55-2.92-6.18-2.92-.8,0-1.36.47-1.56,2.19,0,.04-.04.09-.08.09h-.28s-.08,0-.08-.09l.36-5.49-.28-3.48c0-.09.04-.09.08-.09l.32-.04s.08.04.08.09c1.68,6.52,4.99,9.1,7.7,9.1,2.23,0,3.87-1.89,3.87-4.03,0-2.79-1.24-3.99-5.95-4.85-3.51-.64-6.7-1.59-6.7-6.14,0-3.73,2.39-5.83,5.19-5.83,2.99,0,4.03,2.23,5.31,2.23Z"/><path class="cls-1" d="m71.63,21.11h.56s.08.04.08.09c0,7.55-2,9.57-5.47,9.57-3.27,0-5.47-2.4-5.47-6.69l-.04-13.39h-4.55s-.08-.04-.08-.09v-.6s.04-.09.08-.09l1.4.21c3.95,0,5.11-4.03,5.71-7.85,0-.04.04-.09.08-.09h.4s.08.04.08.09v7.89l7.74-.26s.08.04.08.09v.86s-.04.09-.08.09h-6.14c-1.04,0-1.6.6-1.6,1.72v9.53c0,4.89,1.4,7.12,3.63,7.12,1.6,0,3.47-.94,3.51-8.11,0-.04.04-.09.08-.09Z"/><path class="cls-1" d="m73.83,19.74v-.56s.04-.09.08-.09h7.86s.08.04.08.09v.56s-.04.09-.08.09h-7.86s-.08-.04-.08-.09Z"/><path class="cls-1" d="m106.35,13.77h-.6s-.08-.04-.08-.09c-1.92-8.07-5.39-12.87-10.13-12.87s-6.58,3.13-6.58,14.93,1.64,14.55,7.1,14.55,9.82-4.03,9.86-13.34c0-.04.04-.09.08-.09h.6s.08.04.08.09c-.04,9.35-4.23,14.12-10.61,14.12-6.7,0-11.77-6.14-11.77-15.32S89.35.09,95.54.09c4.75,0,6.14,3.86,8.1,3.86,1.16,0,1.92-1.67,1.96-3.86,0-.04.04-.09.08-.09h.56s.08,0,.08.09l-.32,8.58.44,5.02c0,.09-.04.09-.08.09Z"/><path class="cls-1" d="m108.75,20c0-6.22,3.47-10.73,8.06-10.73s8.02,4.5,8.02,10.73-3.47,10.77-8.02,10.77-8.06-4.5-8.06-10.77Zm12.33,0c0-8.07-1.12-10.21-4.27-10.21s-4.31,2.15-4.31,10.21,1.12,10.25,4.31,10.25,4.27-2.15,4.27-10.25Z"/><path class="cls-1" d="m145.74,29.48s.08.04.08.09v.47s-.04.09-.08.09h-6.62s-.08-.04-.08-.09v-1.76c0-1.54-.36-1.59-1.12-.21-.96,1.67-2.23,2.7-3.83,2.7-4.55,0-7.22-5.15-7.22-10.73s2.67-10.77,7.22-10.77c1.76,0,3.03.81,3.87,2.19.8,1.24,1.08,1.24,1.08-.26V2.62c0-1.42-.64-1.97-1.76-1.97l-3.03.34s-.08-.04-.08-.09V.17s.04-.09.08-.09h7.82s.08.04.08.09v27.33c0,1.46.68,1.97,1.72,1.97h1.88Zm-6.7-9.44c0-7.47-1.92-10.13-4.95-10.13-2.23,0-3.47,2.66-3.47,10.13s1.44,10.08,3.47,10.08c2.16,0,4.95-2.66,4.95-10.08Z"/><path class="cls-1" d="m160.95,20.34h-10.65c-1.04,0-1.6.64-1.6,1.8.2,6.35,1.52,7.98,4.99,7.98,2.79,0,5.71-2.19,6.34-8.07,0-.04.04-.09.08-.09h.56s.08.04.08.09c-.64,5.96-3.51,8.71-7.38,8.71-4.95,0-8.42-3.86-8.42-10.77,0-6.22,3.47-10.73,8.06-10.73s8.02,4.5,8.02,10.51v.47s-.04.09-.08.09Zm-5.75-.47c1.2.04,1.83-1.07,1.83-2.45v-3c0-3.09-1.36-4.5-4.03-4.5-2.91,0-4.11,1.72-4.27,7.94-.04,1.16.56,1.8,1.56,1.85l4.91.17Z"/><path class="cls-1" d="m176.19,12.1c0-1.07-2-2.19-4.51-2.19-3.79,0-4.91,2.02-4.91,10.08s1.12,10.13,5.11,10.13c3.07,0,6.23-3.05,6.26-9.44,0-.04.04-.09.08-.09h.52s.08.04.08.09c-.04,6.39-3.35,10.08-6.94,10.08-5.39,0-8.86-3.56-8.86-10.77,0-6.22,3.47-10.73,8.66-10.73,3.59,0,6.9,1.89,6.9,5.88,0,1.89-1.24,3.43-2.63,3.43-1.68,0-2.95-1.03-2.95-2.66,0-2.83,3.19-2.27,3.19-3.82Z"/><path class="cls-1" d="m187.01.64V.17s.04-.09.08-.09h22.07s.08,0,.08.09l-.2,12.74c0,.09-.04.09-.08.09h-.68s-.08,0-.08-.09l.32-3.9c0-3.99-3.51-8.24-7.26-8.24h-3.95c-1.28,0-1.99.82-1.99,1.72v8.97c0,1.93.72,3,2.07,3,2.79,0,4.55-3.65,4.27-10,0-.04.04-.09.08-.09h.52s.08.04.08.09v20.64s-.04.09-.08.09h-.52s-.08-.04-.08-.09c.28-6.39-1.48-10-4.27-10-1.32,0-2.07,1.07-2.07,3v9.48c0,1.42.72,1.97,1.83,1.97l4.63-.34s.08.04.08.09v.73s-.04.09-.08.09h-14.68s-.08-.04-.08-.09v-.47s.04-.09.08-.09h3.03c1.12,0,1.76-.47,1.76-1.89V2.62c0-1.46-.68-1.89-1.72-1.89h-3.07s-.08-.04-.08-.09Z"/><path class="cls-1" d="m231.39,29.48s.08.04.08.09v.47s-.04.09-.08.09h-6.62s-.08-.04-.08-.09v-1.76c0-1.72-1.04-2.32-2.47-1.42-2.99,1.89-5.23,3.26-6.7,3.26-1.04,0-1.44-.94-1.44-1.8v-15.88c0-1.46-.68-1.97-1.72-1.97h-1.88s-.08-.04-.08-.09v-.39s.04-.09.08-.09h6.62s.08.04.08.09v16.6c0,1.07.6,1.5,1.2,1.5.88,0,3.03-1.42,4.95-2.62.96-.64,1.36-1.42,1.36-2.57v-10.47c0-1.46-.68-1.97-1.72-1.97l-2.67.34s-.08-.04-.08-.09v-.73s.04-.09.08-.09h7.42s.08.04.08.09v17.51c0,1.46.68,1.97,1.76,1.97h1.84Z"/><path class="cls-1" d="m244.8,21.11h.56s.08.04.08.09c0,7.55-2,9.57-5.47,9.57-3.27,0-5.47-2.4-5.47-6.69l-.04-13.39h-4.55s-.08-.04-.08-.09v-.6s.04-.09.08-.09l1.4.21c3.95,0,5.11-4.03,5.71-7.85,0-.04.04-.09.08-.09h.4s.08.04.08.09v7.89l7.74-.26s.08.04.08.09v.86s-.04.09-.08.09h-6.14c-1.04,0-1.6.6-1.6,1.72v9.53c0,4.89,1.4,7.12,3.63,7.12,1.6,0,3.47-.94,3.51-8.11,0-.04.04-.09.08-.09Z"/><path class="cls-1" d="m267.5,29.48s.08.04.08.09v.47s-.04.09-.08.09h-6.62s-.08-.04-.08-.09v-1.76c0-1.72-1.04-2.32-2.47-1.42-2.99,1.89-5.23,3.26-6.7,3.26-1.04,0-1.44-.94-1.44-1.8v-15.88c0-1.46-.68-1.97-1.72-1.97h-1.88s-.08-.04-.08-.09v-.39s.04-.09.08-.09h6.62s.08.04.08.09v16.6c0,1.07.6,1.5,1.2,1.5.88,0,3.03-1.42,4.95-2.62.96-.64,1.36-1.42,1.36-2.57v-10.47c0-1.46-.68-1.97-1.72-1.97l-2.67.34s-.08-.04-.08-.09v-.73s.04-.09.08-.09h7.42s.08.04.08.09v17.51c0,1.46.68,1.97,1.76,1.97h1.84Z"/><path class="cls-1" d="m283.43,13.6c0,1.54-1.16,3-2.59,3-.92,0-2.16-.56-2.16-2.06,0-2.19,2.04-1.8,2.04-3.26,0-.69-.36-1.16-1.04-1.16-1,0-2.79,1.42-4.87,3.3-.48.47-.68.94-.68,1.59v12.57c0,1.46.68,1.97,1.76,1.97l3.43-.34s.08.04.08.09v.73s-.04.09-.08.09h-11.89s-.08-.04-.08-.09v-.47s.04-.09.08-.09h1.83c1.12,0,1.76-.47,1.76-1.89v-15.15c0-1.46-.68-1.97-1.72-1.97h-1.88s-.08-.04-.08-.09v-.39s.04-.09.08-.09h6.62s.08.04.08.09v1.16c0,1.07,1,1.12,2.23.13,1.28-1.07,2.43-1.85,3.43-1.85,1.92,0,3.63,1.54,3.63,4.16Z"/><path class="cls-1" d="m300.75,20.34h-10.65c-1.04,0-1.6.64-1.6,1.8.2,6.35,1.52,7.98,4.99,7.98,2.79,0,5.71-2.19,6.34-8.07,0-.04.04-.09.08-.09h.56s.08.04.08.09c-.64,5.96-3.51,8.71-7.38,8.71-4.95,0-8.42-3.86-8.42-10.77,0-6.22,3.47-10.73,8.06-10.73s8.02,4.5,8.02,10.51v.47s-.04.09-.08.09Zm-5.75-.47c1.2.04,1.83-1.07,1.83-2.45v-3c0-3.09-1.36-4.5-4.03-4.5-2.91,0-4.11,1.72-4.27,7.94-.04,1.16.56,1.8,1.56,1.85l4.91.17Z"/><path class="cls-1" d="m312.88,11.5c.84,0,1.4-1.2,1.6-2.19,0-.04.04-.09.08-.09h.28s.08,0,.08.09l-.24,5.02.28,3.52c0,.09-.04.09-.08.09h-.24s-.08-.04-.12-.09c-1.12-3.69-3.83-7.94-6.86-7.94-2.35,0-3.79,1.59-3.79,3.86s1.96,2.96,6.26,3.82c4.83.99,6.42,3.39,6.42,6.91,0,4.08-2.67,6.26-5.47,6.26-3.55,0-4.55-2.92-6.18-2.92-.8,0-1.36.47-1.56,2.19,0,.04-.04.09-.08.09h-.28s-.08,0-.08-.09l.36-5.49-.28-3.48c0-.09.04-.09.08-.09l.32-.04s.08.04.08.09c1.68,6.52,4.99,9.1,7.7,9.1,2.23,0,3.87-1.89,3.87-4.03,0-2.79-1.24-3.99-5.95-4.85-3.51-.64-6.7-1.59-6.7-6.14,0-3.73,2.39-5.83,5.19-5.83,2.99,0,4.03,2.23,5.31,2.23Z"/></g></svg>