<svg width="1645" height="317" viewBox="0 0 1645 317" fill="none" xmlns="http://www.w3.org/2000/svg">
<path d="M58.848 252.065C29.0737 252.065 0 232.449 0 198.821C0 160.29 29.7743 146.979 66.5543 142.075L91.0743 138.923C105.086 137.171 109.99 131.917 109.99 123.51C109.99 111.6 100.182 101.091 81.9669 101.091C62.0006 101.091 49.3903 112.301 47.6389 130.166H3.50286C6.30515 94.4364 35.3789 69.2154 79.5149 69.2154C131.707 69.2154 152.725 97.2386 152.725 145.228V245.76H113.142V238.754C113.142 233.15 113.843 227.895 114.894 222.291C105.786 239.104 88.272 252.065 58.848 252.065ZM43.4354 197.07C43.4354 212.132 55.3452 220.539 70.4074 220.539C93.176 220.539 111.391 203.726 111.391 179.556V160.991C107.538 164.494 101.583 166.245 91.0743 168.347L77.0629 171.149C57.0966 175.002 43.4354 181.658 43.4354 197.07Z" fill="white"/>
<path d="M180.151 245.76V74.8199H222.886V82.5262C222.886 87.4302 222.536 92.6846 221.485 99.34C230.942 82.176 247.056 69.2154 274.028 69.2154C311.858 69.2154 334.277 95.8375 334.277 137.872V245.76H291.542V144.177C291.542 118.956 279.282 103.193 259.315 103.193C238.298 103.193 222.886 121.759 222.886 145.578V245.76H180.151Z" fill="white"/>
<path d="M437.755 248.912C401.325 248.912 382.059 230.698 382.059 192.516V108.798H343.178V74.8199H382.059V13.1696H424.794V74.8199H466.475V108.798H424.794V186.211C424.794 204.076 431.8 214.584 450.015 214.584C454.218 214.584 458.772 214.234 462.976 213.534V245.76C458.772 247.161 448.614 248.912 437.755 248.912Z" fill="white"/>
<path d="M479.352 245.76V74.8199H522.087V245.76H479.352Z" fill="white"/>
<path d="M551.059 245.76V0.559326H593.794V142.426C597.297 137.522 602.201 131.567 606.054 127.363L655.094 74.8199L709.366 74.7787L639.681 147.68L715.693 245.76H661.049L611.308 176.754L593.794 194.618V245.76H551.059Z" fill="white"/>
<path d="M750.728 316.541L778.035 244.251L711.113 74.7787H759.102L793.815 180.769C795.917 186.724 801.487 203.372 801.487 203.372L807.284 182.178L841.154 74.7787L885.745 74.769L796.459 316.541H750.728Z" fill="white"/>
<path d="M982.616 248.861C946.186 248.861 926.921 230.646 926.921 192.465V108.747H888.039V74.769H926.921V13.1187H969.656V74.769H1011.49V108.747H969.656V186.16C969.656 204.025 976.661 214.533 994.876 214.533C999.08 214.533 1003.19 214.094 1007.46 213.328V245.709C1003.25 247.11 993.475 248.861 982.616 248.861Z" fill="white"/>
<path d="M1025.28 245.76V0.559326H1068.01V82.5262C1068.01 87.4302 1067.66 92.6846 1066.61 99.34C1076.07 82.176 1092.18 69.2154 1119.15 69.2154C1156.98 69.2154 1179.4 95.8375 1179.4 137.872V245.76H1136.67V144.177C1136.67 118.956 1124.41 103.193 1104.44 103.193C1083.43 103.193 1068.01 121.759 1068.01 145.578V245.76H1025.28Z" fill="white"/>
<path d="M1284.58 252.065C1233.44 252.065 1197.36 219.138 1197.36 159.94C1197.36 105.996 1233.44 69.2154 1283.18 69.2154C1335.37 69.2154 1365.5 105.646 1365.5 161.341V170.799H1241.14C1241.49 197.771 1258.66 218.438 1284.58 218.438C1303.14 218.438 1318.21 207.929 1321.01 190.064H1364.44C1360.94 225.093 1330.82 252.065 1284.58 252.065ZM1240.79 139.974H1321.71C1321.01 116.855 1305.95 101.091 1282.83 101.091C1259.71 101.091 1243.25 117.555 1240.79 139.974Z" fill="white"/>
<path d="M1386.63 245.76V74.8199H1429.36V87.7805C1429.36 94.0857 1429.01 99.3401 1427.96 105.645C1437.07 86.3795 1452.48 69.2154 1478.05 69.2154C1481.56 69.2154 1484.36 69.5657 1487.16 70.2662V111.6C1484.36 110.899 1480.51 110.199 1474.9 110.199C1448.63 110.199 1429.36 123.51 1429.36 160.991V245.76H1386.63Z" fill="white"/>
<path d="M1550.24 252.065C1520.47 252.065 1491.39 232.449 1491.39 198.821C1491.39 160.29 1521.17 146.979 1557.95 142.075L1582.47 138.923C1596.48 137.171 1601.38 131.917 1601.38 123.51C1601.38 111.6 1591.58 101.091 1573.36 101.091C1553.39 101.091 1540.78 112.301 1539.03 130.166H1494.9C1497.7 94.4364 1526.77 69.2154 1570.91 69.2154C1623.1 69.2154 1644.12 97.2386 1644.12 145.228V245.76H1604.54V238.754C1604.54 233.15 1605.24 227.895 1606.29 222.291C1597.18 239.104 1579.67 252.065 1550.24 252.065ZM1534.83 197.07C1534.83 212.132 1546.74 220.539 1561.8 220.539C1584.57 220.539 1602.79 203.726 1602.79 179.556V160.991C1598.93 164.494 1592.98 166.245 1582.47 168.347L1568.46 171.149C1548.49 175.002 1534.83 181.658 1534.83 197.07Z" fill="white"/>
</svg>
