<svg width="234" height="40" viewBox="0 0 234 40" fill="none" xmlns="http://www.w3.org/2000/svg">
<g clip-path="url(#clip0_621_2857)">
<path d="M17.7333 37.1392V38.143H12.1408C11.9974 35.6096 11.9974 36.1354 10.3244 29.2048C8.41245 21.2701 8.17344 21.1269 6.78726 21.1269H6.69192V35.2272C6.69192 36.6612 6.78751 36.709 8.98627 37.1392V38.143H0V37.1392C2.19877 36.709 2.29437 36.6612 2.29437 35.2272V5.2097C2.29437 3.77573 2.19877 3.72792 0 3.29773V2.29395H8.41245C13.5748 2.29395 16.0125 5.40092 16.0125 10.7064C16.0125 16.9203 13.0968 20.0273 9.27283 20.5531C11.854 20.7921 12.4276 21.6047 14.5308 28.8699C16.8729 36.9002 16.6339 36.6134 17.7333 37.1392ZM11.376 11.3758C11.376 5.97449 10.2766 3.34553 8.41245 3.34553C7.16965 3.34553 6.69167 3.87132 6.69167 6.78686V19.8836H7.50425C9.84643 19.8839 11.376 17.6373 11.376 11.3758Z" fill="white"/>
<path d="M35.7536 37.1398V38.1436H27.2933V37.1398C30.5437 36.7574 30.5437 37.0442 29.9701 34.3196L28.6317 27.6277H22.5614L21.4142 34.3196C20.9362 37.0442 21.0796 36.7574 24.3778 37.1398V38.1436H18.2117V37.1398C19.2633 36.4228 19.1677 36.1838 19.5501 34.3196L26.7675 0.143555H27.2455L34.4154 34.3196C34.8454 36.2794 34.7498 36.4706 35.7536 37.1398ZM28.3449 26.2896L25.3335 11.5198L22.8002 26.2896H28.3449Z" fill="white"/>
<path d="M54.0128 20.2663C54.0128 33.2675 49.9023 38.143 43.9749 38.143H36.2317V37.1392C38.4305 36.709 38.5261 36.6612 38.5261 35.2272V5.2097C38.5261 3.77573 38.4305 3.72792 36.2317 3.29773V2.29395H43.9749C51.3839 2.29395 54.0128 9.22484 54.0128 20.2663ZM49.4239 20.8398C49.4239 9.17704 47.3687 3.34553 44.6441 3.34553C43.4013 3.34553 42.9233 3.87132 42.9233 6.78686V33.6499C42.9233 36.5178 43.4013 37.0914 44.7398 37.0914C46.9386 37.0914 49.4239 33.4587 49.4239 20.8398Z" fill="white"/>
<path d="M64.4334 37.1392V38.143H55.447V37.1392C57.6458 36.709 57.7415 36.6612 57.7415 35.2272V5.2097C57.7415 3.77573 57.6458 3.72792 55.447 3.29773V2.29395H64.4334V3.29773C62.2347 3.72792 62.139 3.77573 62.139 5.2097V35.2272C62.139 36.6612 62.2347 36.709 64.4334 37.1392Z" fill="white"/>
<path d="M66.106 20.2187C66.106 7.69553 69.2128 1.625 74.5662 1.625C76.5736 1.625 78.1987 2.43759 79.2503 3.48917V13.001H78.7723C75.8569 4.49273 75.2354 2.67634 73.7055 2.67634C71.5546 2.67634 70.7901 8.22106 70.7901 19.8839C70.7901 29.8737 72.5109 37.665 74.4705 37.665C75.6655 37.665 75.9521 36.709 78.7723 27.4362H79.2503V36.8527C78.2466 37.8565 76.4779 38.7169 74.5662 38.7169C69.2128 38.7169 66.106 33.1243 66.106 20.2187Z" fill="white"/>
<path d="M98.4657 37.1398V38.1436H90.0055V37.1398C93.2558 36.7574 93.2558 37.0442 92.6822 34.3196L91.344 27.6277H85.2735L84.1263 34.3196C83.6484 37.0442 83.7919 36.7574 87.09 37.1398V38.1436H80.9238V37.1398C81.9754 36.4228 81.8797 36.1838 82.2624 34.3196L89.4797 0.143555H89.9576L97.1275 34.3196C97.5576 36.2794 97.462 36.4706 98.4657 37.1398ZM91.057 26.2896L88.0459 11.5198L85.5123 26.2896H91.057Z" fill="white"/>
<path d="M113.427 27.6752H113.905V38.4776C111.371 38.2386 108.838 38.143 106.783 38.143H98.9438V37.1392C101.143 36.709 101.238 36.6612 101.238 35.2272V5.2097C101.238 3.77573 101.143 3.72792 98.9438 3.29773V2.29395H108.886V3.29773C105.731 3.72792 105.636 3.77573 105.636 5.2097V36.9958H109.364C110.559 36.9958 110.654 36.8524 111.037 35.6575L113.427 27.6752ZM128.197 24.2336V25.2374H119.784V24.2336C122.508 23.9468 122.652 23.9946 121.505 21.4135L119.019 15.8687L116.868 21.4135C115.865 24.0424 116.104 23.9468 118.111 24.2336V25.2374H112.327V24.2336C114.048 23.8034 113.905 23.5644 115.004 21.4135L118.494 14.6737L114.67 6.11791C113.714 3.96692 113.522 3.77573 112.232 3.29773V2.29395H120.644V3.29773C117.633 3.58453 117.777 3.53673 118.924 6.11791L121.553 11.9972L123.56 6.11791C124.468 3.48893 124.325 3.58453 122.317 3.29773V2.29395H128.101V3.29773C126.38 3.72792 126.428 3.96692 125.424 6.11791L122.079 13.1922L125.759 21.4135C126.715 23.5644 126.906 23.7556 128.197 24.2336Z" fill="white"/>
<path d="M129.631 20.2187C129.631 7.69553 132.738 1.625 138.091 1.625C140.098 1.625 141.724 2.43759 142.776 3.48917V13.001H142.298C139.382 4.49273 138.76 2.67634 137.231 2.67634C135.08 2.67634 134.315 8.22106 134.315 19.8839C134.315 29.8737 136.036 37.665 137.995 37.665C139.19 37.665 139.477 36.709 142.298 27.4362H142.776V36.8527C141.772 37.8565 140.003 38.7169 138.091 38.7169C132.738 38.7169 129.631 33.1243 129.631 20.2187Z" fill="white"/>
<path d="M165.193 37.1392V38.143H156.207V37.1392C158.406 36.709 158.501 36.6612 158.501 35.2272V20.8877H151.618V35.2272C151.618 36.6612 151.714 36.709 153.912 37.1392V38.143H144.927V37.1392C147.125 36.709 147.221 36.6612 147.221 35.2272V5.2097C147.221 3.77573 147.125 3.72792 144.927 3.29773V2.29395H153.912V3.29773C151.714 3.72792 151.618 3.77573 151.618 5.2097V19.4537H158.501V5.2097C158.501 3.77573 158.406 3.72792 156.207 3.29773V2.29395H165.193V3.29773C162.994 3.72792 162.898 3.77573 162.898 5.2097V35.2272C162.899 36.6612 162.994 36.709 165.193 37.1392Z" fill="white"/>
<path d="M182.735 37.1398V38.1436H174.275V37.1398C177.525 36.7574 177.525 37.0442 176.952 34.3196L175.613 27.6277H169.543L168.395 34.3196C167.917 37.0442 168.061 36.7574 171.359 37.1398V38.1436H165.193V37.1398C166.244 36.4228 166.149 36.1838 166.531 34.3196L173.749 0.143555H174.227L181.397 34.3196C181.827 36.2794 181.731 36.4706 182.735 37.1398ZM175.326 26.2896L172.315 11.5198L169.781 26.2896H175.326Z" fill="white"/>
<path d="M201.329 2.29389V3.29767C199.13 3.72787 199.035 3.77567 199.035 5.20964L198.939 39.7682H198.461L186.703 13.0487L187.324 35.2274C187.372 36.6614 187.42 36.7092 190.574 37.1394V38.1432H183.214V37.1394C185.412 36.7092 185.508 36.6614 185.508 35.2274L185.603 0.668945H186.082L197.84 27.3408L197.218 5.20989C197.171 3.77591 197.123 3.7281 193.968 3.29791V2.29412L201.329 2.29389Z" fill="white"/>
<path d="M202.524 20.2187C202.524 8.17351 205.917 1.625 211.749 1.625C213.708 1.625 215.812 2.48539 216.911 3.48917V13.001H216.433C213.613 3.58477 212.466 2.67634 210.936 2.67634C208.594 2.67634 207.113 6.78708 207.113 20.6009C207.113 34.2234 209.789 37.665 211.51 37.665C211.892 37.665 212.227 37.5216 212.466 37.2348C212.753 36.9002 212.896 36.3266 212.896 35.4663V23.7079C212.896 22.2738 212.801 22.226 209.455 21.7959V20.7921H218.536V21.7959C216.816 22.226 216.72 22.2738 216.72 23.7079V32.7897C216.72 33.7457 216.768 34.2237 217.007 36.1357C215.286 37.8565 213.278 38.7169 211.462 38.7169C206.109 38.7169 202.524 32.6463 202.524 20.2187Z" fill="white"/>
<path d="M226.184 3.44174V19.4065H231.538V20.8405H226.184V36.9964H228.718C229.913 36.9964 230.008 36.853 230.391 35.658L232.924 27.4368H233.402V38.4782C230.869 38.2392 228.335 38.1436 226.758 38.1436H219.492V37.1398C221.691 36.7096 221.787 36.6618 221.787 35.2279V5.21032C221.787 3.77634 221.692 3.72854 219.492 3.29834V2.29456H226.758C228.335 2.29456 230.869 2.19896 233.402 1.95996V13.0014H232.924L230.391 4.78014C230.008 3.58514 229.913 3.44174 228.718 3.44174H226.184Z" fill="white"/>
</g>
<defs>
<clipPath id="clip0_621_2857">
<rect width="233.402" height="40" fill="white"/>
</clipPath>
</defs>
</svg>
