<svg width="150" height="33" viewBox="0 0 150 33" fill="none" xmlns="http://www.w3.org/2000/svg">
<g clip-path="url(#clip0_620_2843)">
<path d="M118.546 27.804H107.642C107.395 27.804 107.313 27.9263 107.313 28.1318V32.355C107.313 32.5605 107.395 32.684 107.642 32.684H118.546C118.59 32.688 118.635 32.6823 118.677 32.6671C118.719 32.652 118.757 32.6279 118.789 32.5965C118.82 32.5651 118.844 32.5272 118.859 32.4855C118.875 32.4437 118.88 32.3992 118.876 32.355V28.1318C118.88 28.0876 118.875 28.0431 118.859 28.0015C118.844 27.9598 118.82 27.9219 118.789 27.8906C118.757 27.8594 118.719 27.8354 118.677 27.8204C118.635 27.8054 118.59 27.7998 118.546 27.804ZM113.36 27.0991C114.678 27.0991 115.542 26.2381 115.542 24.9257V5.99491C115.546 5.95081 115.54 5.90639 115.525 5.86475C115.51 5.82312 115.486 5.78529 115.455 5.75392C115.423 5.72255 115.385 5.69841 115.344 5.6832C115.302 5.66798 115.257 5.66206 115.213 5.66585H112.829C111.47 5.66585 110.647 6.44623 110.647 7.83922V26.7713C110.647 26.9768 110.73 27.0991 110.976 27.0991H113.36ZM118.546 0.13032H107.642C107.395 0.13032 107.313 0.25258 107.313 0.458081V4.67476C107.313 4.88026 107.395 5.00382 107.642 5.00382H118.546C118.59 5.00781 118.635 5.00204 118.677 4.98691C118.719 4.97179 118.757 4.94768 118.789 4.91629C118.82 4.88489 118.844 4.84699 118.859 4.80526C118.875 4.76352 118.88 4.71897 118.876 4.67476V0.451578C118.879 0.407937 118.873 0.364162 118.857 0.323285C118.842 0.282409 118.817 0.24541 118.786 0.21485C118.754 0.184291 118.717 0.160903 118.675 0.146307C118.634 0.131711 118.59 0.126256 118.546 0.13032ZM149.666 27.8105H144.443C144.197 27.8105 144.114 27.6805 144.114 27.4815V21.6585C144.114 20.2278 143.044 19.4851 141.933 19.4851H139.545C139.298 19.4851 139.216 19.6087 139.216 19.8142V32.355C139.216 32.5605 139.298 32.684 139.545 32.684H149.671C149.715 32.688 149.76 32.6823 149.802 32.6671C149.844 32.652 149.882 32.6279 149.913 32.5965C149.945 32.5651 149.969 32.5272 149.984 32.4855C150 32.4437 150.005 32.3992 150.001 32.355V28.1318C150.005 28.0875 150 28.0429 149.984 28.0011C149.969 27.9593 149.945 27.9214 149.913 27.8901C149.881 27.8588 149.843 27.8348 149.801 27.82C149.759 27.8051 149.714 27.7996 149.67 27.804L149.666 27.8105ZM149.666 13.9899H144.443C144.197 13.9899 144.114 13.8677 144.114 13.6622V7.83922C144.114 6.52687 143.25 5.66585 141.933 5.66585H139.545C139.298 5.66585 139.216 5.78941 139.216 5.99491V18.5357C139.216 18.7412 139.298 18.8634 139.545 18.8634H149.671C149.715 18.8676 149.76 18.8621 149.802 18.8471C149.844 18.8321 149.882 18.8081 149.913 18.7768C149.945 18.7455 149.969 18.7077 149.984 18.666C150 18.6243 150.005 18.5798 150.001 18.5357V14.3073C150.005 14.2634 149.998 14.2193 149.982 14.1781C149.967 14.1369 149.942 14.0996 149.911 14.0688C149.879 14.0379 149.841 14.0143 149.8 13.9996C149.758 13.9849 149.714 13.9794 149.67 13.9834L149.666 13.9899ZM149.666 0.13032H139.54C139.293 0.13032 139.211 0.25258 139.211 0.458081V4.67476C139.211 4.88026 139.293 5.00382 139.54 5.00382H149.666C149.71 5.00781 149.755 5.00204 149.797 4.98691C149.839 4.97179 149.877 4.94768 149.908 4.91629C149.94 4.88489 149.964 4.84699 149.979 4.80526C149.994 4.76352 150 4.71897 149.996 4.67476V0.451578C149.999 0.408294 149.993 0.364884 149.977 0.324308C149.962 0.283731 149.938 0.246943 149.907 0.216452C149.876 0.18596 149.839 0.162482 149.798 0.147618C149.757 0.132754 149.713 0.126854 149.67 0.13032H149.666ZM123.943 15.4259H121.555C121.309 15.4259 121.226 15.5559 121.226 15.7536V32.355C121.226 32.5605 121.309 32.684 121.555 32.684H125.796C125.84 32.6878 125.885 32.6819 125.927 32.6667C125.968 32.6515 126.006 32.6273 126.038 32.596C126.069 32.5646 126.093 32.5268 126.108 32.4851C126.123 32.4435 126.129 32.3991 126.125 32.355V17.5992C126.125 16.1646 125.054 15.4259 123.943 15.4259ZM135.592 0.13032H131.352C131.106 0.13032 131.023 0.25258 131.023 0.458081V18.2899C131.027 18.3339 131.022 18.3783 131.007 18.4199C130.991 18.4614 130.967 18.4992 130.936 18.5305C130.905 18.5617 130.867 18.5858 130.825 18.6008C130.783 18.6159 130.739 18.6216 130.694 18.6176C130.611 18.6176 130.446 18.6176 130.364 18.2899L126.165 0.451578C126.153 0.355074 126.103 0.267386 126.026 0.207326C125.949 0.147267 125.851 0.119621 125.754 0.13032H121.555C121.309 0.13032 121.226 0.25258 121.226 0.458081V14.4764C121.226 14.6806 121.309 14.7625 121.515 14.7625H126.536C126.58 14.7565 126.624 14.7592 126.666 14.7705C126.708 14.7818 126.748 14.8014 126.783 14.8282C126.817 14.855 126.846 14.8885 126.867 14.9265C126.889 14.9646 126.902 15.0066 126.907 15.05L130.941 32.355C130.952 32.4529 131.001 32.5425 131.079 32.6042C131.156 32.6659 131.254 32.6946 131.352 32.684H135.592C135.636 32.688 135.681 32.6823 135.723 32.6671C135.765 32.652 135.803 32.6279 135.834 32.5965C135.866 32.5651 135.89 32.5272 135.905 32.4855C135.92 32.4437 135.926 32.3992 135.922 32.355V0.451578C135.925 0.407937 135.918 0.364162 135.903 0.323285C135.887 0.282409 135.863 0.24541 135.831 0.21485C135.8 0.184291 135.762 0.160903 135.721 0.146307C135.679 0.131711 135.635 0.126256 135.592 0.13032ZM99.3268 5.66585H96.9402C96.896 5.66226 96.8516 5.66833 96.81 5.68364C96.7684 5.69894 96.7307 5.72311 96.6995 5.75446C96.6683 5.7858 96.6443 5.82356 96.6293 5.86509C96.6143 5.90663 96.6085 5.95093 96.6125 5.99491V32.355C96.6085 32.3992 96.6143 32.4437 96.6294 32.4855C96.6446 32.5272 96.6688 32.5651 96.7003 32.5965C96.7318 32.6279 96.7699 32.652 96.8118 32.6671C96.8537 32.6823 96.8984 32.688 96.9428 32.684H101.182C101.429 32.684 101.512 32.5605 101.512 32.355V7.83922C101.51 6.48655 100.686 5.66585 99.3268 5.66585ZM105.46 0.13032H92.2466C92.2026 0.125648 92.1581 0.130649 92.1162 0.144972C92.0743 0.159295 92.0361 0.182591 92.0042 0.21322C91.9724 0.243848 91.9476 0.281064 91.9318 0.322247C91.9159 0.363429 91.9093 0.407576 91.9124 0.451578V4.67476C91.9084 4.71885 91.9142 4.76328 91.9293 4.80491C91.9444 4.84655 91.9685 4.88438 91.9999 4.91574C92.0312 4.94711 92.0691 4.97125 92.1108 4.98647C92.1526 5.00168 92.1971 5.00761 92.2414 5.00382H105.46C105.505 5.00784 105.549 5.00208 105.591 4.98695C105.633 4.97181 105.671 4.94768 105.702 4.91626C105.734 4.88484 105.758 4.84691 105.773 4.80517C105.788 4.76343 105.794 4.7189 105.789 4.67476V0.451578C105.793 0.408003 105.786 0.36425 105.771 0.32337C105.755 0.28249 105.731 0.245467 105.7 0.214882C105.668 0.184296 105.631 0.160885 105.589 0.146281C105.548 0.131676 105.504 0.126229 105.46 0.13032ZM78.0877 15.4259H75.6998C75.6556 15.4219 75.611 15.4276 75.5693 15.4427C75.5276 15.4577 75.4897 15.4817 75.4583 15.513C75.4269 15.5443 75.4028 15.582 75.3877 15.6236C75.3725 15.6652 75.3668 15.7096 75.3708 15.7536V32.355C75.3666 32.3991 75.3722 32.4437 75.3872 32.4854C75.4022 32.5271 75.4263 32.5651 75.4577 32.5965C75.4891 32.6279 75.5271 32.652 75.5689 32.6672C75.6108 32.6823 75.6555 32.6881 75.6998 32.684H79.939C79.9833 32.6881 80.028 32.6823 80.0698 32.6672C80.1117 32.652 80.1497 32.6279 80.1811 32.5965C80.2125 32.5651 80.2366 32.5271 80.2516 32.4854C80.2666 32.4437 80.2722 32.3991 80.268 32.355V17.5992C80.268 16.1646 79.281 15.4259 78.0877 15.4259ZM89.736 0.13032H85.4968C85.4526 0.126091 85.4079 0.131664 85.3661 0.14664C85.3242 0.161616 85.2862 0.185625 85.2548 0.216947C85.2233 0.248269 85.1992 0.286129 85.1842 0.327817C85.1692 0.369504 85.1636 0.413988 85.1678 0.458081V18.2899C85.1716 18.334 85.1657 18.3784 85.1504 18.4199C85.1351 18.4615 85.1109 18.4993 85.0794 18.5305C85.0479 18.5617 85.0099 18.5857 84.9682 18.6008C84.9264 18.6158 84.8818 18.6216 84.8375 18.6176C84.6325 18.6176 84.5907 18.5357 84.5085 18.2899L80.3098 0.451578C80.3098 0.246077 80.1453 0.13032 79.9011 0.13032H75.6998C75.6555 0.126091 75.6109 0.131664 75.569 0.14664C75.5272 0.161616 75.4892 0.185625 75.4577 0.216947C75.4263 0.248269 75.4022 0.286129 75.3872 0.327817C75.3721 0.369504 75.3665 0.413988 75.3708 0.458081V14.4764C75.3708 14.6806 75.453 14.7625 75.658 14.7625H80.6845C80.7278 14.7567 80.7719 14.7596 80.8142 14.7709C80.8564 14.7823 80.8959 14.8019 80.9304 14.8287C80.965 14.8554 80.9938 14.8888 81.0152 14.9268C81.0367 14.9648 81.0503 15.0067 81.0553 15.05L85.0843 32.355C85.1015 32.4502 85.1528 32.536 85.2286 32.5965C85.3045 32.657 85.3997 32.6881 85.4968 32.684H89.736C89.7803 32.6881 89.825 32.6823 89.8669 32.6672C89.9087 32.652 89.9467 32.6279 89.9781 32.5965C90.0095 32.5651 90.0336 32.5271 90.0486 32.4854C90.0636 32.4437 90.0692 32.3991 90.065 32.355V0.451578C90.0682 0.408003 90.0619 0.36425 90.0464 0.32337C90.0309 0.28249 90.0067 0.245467 89.9754 0.214882C89.944 0.184296 89.9064 0.160885 89.8651 0.146281C89.8237 0.131676 89.7797 0.126229 89.736 0.13032ZM72.1186 27.804H66.8963C66.8519 27.808 66.8072 27.8023 66.7653 27.7871C66.7234 27.772 66.6854 27.7479 66.6539 27.7165C66.6224 27.6851 66.5982 27.6472 66.583 27.6055C66.5678 27.5637 66.562 27.5192 66.566 27.475V21.6585C66.566 20.2278 65.579 19.4851 64.3844 19.4851H61.9926C61.9482 19.4812 61.9035 19.4869 61.8616 19.5021C61.8197 19.5172 61.7816 19.5413 61.7501 19.5727C61.7186 19.6041 61.6944 19.642 61.6792 19.6837C61.6641 19.7254 61.6583 19.77 61.6623 19.8142V32.355C61.6583 32.3992 61.6641 32.4437 61.6792 32.4855C61.6944 32.5272 61.7186 32.5651 61.7501 32.5965C61.7816 32.6279 61.8197 32.652 61.8616 32.6671C61.9035 32.6823 61.9482 32.688 61.9926 32.684H72.1186C72.3654 32.684 72.4476 32.5605 72.4476 32.355V28.1318C72.4476 27.9263 72.3654 27.804 72.1186 27.804ZM72.1186 13.9834H66.8963C66.852 13.9876 66.8073 13.9821 66.7654 13.9671C66.7235 13.9521 66.6854 13.9281 66.6539 13.8968C66.6224 13.8655 66.5981 13.8277 66.5829 13.786C66.5677 13.7443 66.562 13.6998 66.566 13.6557V7.83922C66.566 6.48655 65.7435 5.66585 64.3844 5.66585H61.9926C61.9482 5.66186 61.9035 5.66763 61.8616 5.68275C61.8197 5.69788 61.7816 5.72199 61.7501 5.75338C61.7186 5.78477 61.6944 5.82267 61.6792 5.86441C61.6641 5.90615 61.6583 5.95069 61.6623 5.99491V18.5357C61.6582 18.5798 61.664 18.6243 61.6792 18.666C61.6944 18.7077 61.7186 18.7455 61.7502 18.7768C61.7817 18.8081 61.8198 18.8321 61.8617 18.8471C61.9036 18.8621 61.9483 18.8676 61.9926 18.8634H72.1186C72.3654 18.8634 72.4476 18.7412 72.4476 18.5357V14.3073C72.4476 14.107 72.3654 13.9834 72.1186 13.9834ZM72.1186 0.13032H61.9926C61.9483 0.126123 61.9036 0.131708 61.8617 0.146677C61.8198 0.161645 61.7817 0.18563 61.7502 0.216924C61.7186 0.248218 61.6944 0.286052 61.6792 0.327733C61.664 0.369415 61.6582 0.41392 61.6623 0.458081V4.67476C61.6583 4.71897 61.6641 4.76352 61.6792 4.80526C61.6944 4.84699 61.7186 4.88489 61.7501 4.91629C61.7816 4.94768 61.8197 4.97179 61.8616 4.98691C61.9035 5.00204 61.9482 5.00781 61.9926 5.00382H72.1186C72.3654 5.00382 72.4476 4.88026 72.4476 4.67476V0.451578C72.4476 0.246077 72.3654 0.13032 72.1186 0.13032ZM54.1709 0.13032H51.9135C51.8693 0.126327 51.8248 0.132063 51.783 0.147123C51.7413 0.162183 51.7034 0.186197 51.672 0.217468C51.6406 0.248738 51.6165 0.286499 51.6014 0.328078C51.5863 0.369658 51.5805 0.414039 51.5845 0.458081V4.67476C51.5806 4.71885 51.5863 4.76328 51.6014 4.80491C51.6166 4.84655 51.6406 4.88438 51.672 4.91574C51.7034 4.94711 51.7412 4.97125 51.783 4.98647C51.8247 5.00168 51.8693 5.00761 51.9135 5.00382H53.8419C53.8863 4.99956 53.931 5.00516 53.973 5.02021C54.0149 5.03526 54.053 5.05938 54.0845 5.09085C54.1159 5.12233 54.14 5.16035 54.155 5.20221C54.1699 5.24406 54.1753 5.28869 54.1709 5.33288V13.6167C54.1749 13.6607 54.1691 13.7051 54.154 13.7467C54.1389 13.7882 54.1148 13.826 54.0834 13.8573C54.052 13.8885 54.0141 13.9126 53.9724 13.9276C53.9306 13.9427 53.8861 13.9484 53.8419 13.9444H51.249C51.2047 13.9484 51.1602 13.9426 51.1184 13.9276C51.0766 13.9125 51.0386 13.8885 51.0071 13.8573C50.9756 13.8261 50.9514 13.7883 50.9361 13.7467C50.9208 13.7052 50.9149 13.6608 50.9187 13.6167V2.30109C50.9174 0.86128 49.9317 0.13032 48.7371 0.13032H46.3479C46.3036 0.126123 46.2589 0.131708 46.217 0.146677C46.1751 0.161645 46.137 0.18563 46.1055 0.216924C46.0739 0.248218 46.0497 0.286052 46.0345 0.327733C46.0193 0.369415 46.0135 0.41392 46.0176 0.458081V32.355C46.0136 32.3992 46.0194 32.4437 46.0345 32.4855C46.0497 32.5272 46.0739 32.5651 46.1054 32.5965C46.137 32.6279 46.175 32.652 46.2169 32.6671C46.2588 32.6823 46.3035 32.688 46.3479 32.684H50.5871C50.6314 32.6881 50.6761 32.6823 50.7179 32.6672C50.7598 32.652 50.7977 32.6279 50.8292 32.5965C50.8606 32.5651 50.8846 32.5271 50.8997 32.4854C50.9147 32.4437 50.9203 32.3991 50.9161 32.355V19.1509C50.9121 19.1067 50.9178 19.0622 50.933 19.0205C50.9482 18.9789 50.9724 18.941 51.004 18.9097C51.0355 18.8784 51.0736 18.8544 51.1155 18.8395C51.1574 18.8245 51.2021 18.8189 51.2464 18.8231H54.1683C57.1711 18.8231 59.0668 16.9359 59.0668 13.9431V5.00382C59.0694 2.00975 57.1763 0.13032 54.1709 0.13032ZM41.4102 21.3308C41.2052 19.9781 40.3396 19.4851 39.2286 19.4851H36.5117C36.3067 19.4851 36.1827 19.6087 36.2232 19.8545L38.4061 32.4369C38.4181 32.5048 38.4532 32.5664 38.5055 32.6114C38.5579 32.6564 38.6242 32.6821 38.6933 32.684H43.0161C43.221 32.684 43.3451 32.5605 43.3046 32.273L41.4102 21.3308ZM42.7693 13.9431V7.83922C42.7693 6.48655 41.9455 5.66585 40.5877 5.66585H38.1998C38.1555 5.66182 38.1108 5.66758 38.069 5.68272C38.0271 5.69785 37.9891 5.72199 37.9577 5.75341C37.9263 5.78482 37.9022 5.82275 37.8872 5.86449C37.8722 5.90624 37.8666 5.95076 37.8708 5.99491V13.6154C37.8746 13.6595 37.8687 13.7039 37.8534 13.7454C37.8381 13.787 37.8139 13.8248 37.7824 13.856C37.7509 13.8872 37.7129 13.9112 37.6711 13.9263C37.6293 13.9413 37.5847 13.9471 37.5405 13.9431H34.9476C34.9034 13.9471 34.8589 13.9414 34.8171 13.9263C34.7754 13.9113 34.7375 13.8872 34.7061 13.856C34.6747 13.8247 34.6506 13.7869 34.6355 13.7454C34.6204 13.7038 34.6146 13.6594 34.6186 13.6154V5.33288C34.6144 5.28879 34.62 5.2443 34.635 5.20262C34.65 5.16093 34.6741 5.12307 34.7056 5.09175C34.737 5.06042 34.775 5.03642 34.8169 5.02144C34.8587 5.00646 34.9034 5.00089 34.9476 5.00512H42.439C42.4834 5.00911 42.5281 5.00334 42.57 4.98821C42.6119 4.97309 42.6499 4.94898 42.6814 4.91759C42.713 4.8862 42.7372 4.84829 42.7523 4.80656C42.7675 4.76482 42.7733 4.72027 42.7693 4.67606C42.7693 1.92911 40.9572 0.123817 38.1998 0.123817H30.0491C30.0049 0.119824 29.9603 0.12556 29.9186 0.14062C29.8769 0.15568 29.839 0.179694 29.8076 0.210964C29.7762 0.242235 29.7521 0.279996 29.737 0.321575C29.7218 0.363155 29.7161 0.407536 29.7201 0.451578V32.355C29.7161 32.3991 29.7219 32.4435 29.737 32.4851C29.7521 32.5268 29.7762 32.5646 29.8075 32.596C29.8389 32.6273 29.8768 32.6515 29.9185 32.6667C29.9603 32.6819 30.0048 32.6878 30.0491 32.684H34.2896C34.3339 32.6878 34.3785 32.6819 34.4202 32.6667C34.4619 32.6515 34.4998 32.6273 34.5312 32.596C34.5625 32.5646 34.5866 32.5268 34.6017 32.4851C34.6168 32.4435 34.6226 32.3991 34.6186 32.355V19.1509C34.6144 19.1068 34.62 19.0623 34.635 19.0206C34.65 18.9789 34.6741 18.9411 34.7056 18.9098C34.737 18.8784 34.775 18.8544 34.8169 18.8394C34.8587 18.8245 34.9034 18.8189 34.9476 18.8231H37.8708C40.5877 18.8231 42.7693 16.7317 42.7693 13.9431ZM26.4679 27.804H21.2456C21.2013 27.8081 21.1566 27.8023 21.1148 27.7872C21.0729 27.772 21.035 27.7479 21.0035 27.7165C20.9721 27.6851 20.9481 27.6471 20.933 27.6054C20.918 27.5637 20.9124 27.5191 20.9166 27.475V21.6585C20.9166 20.2278 19.9283 19.4851 18.735 19.4851H16.3419C16.2976 19.4811 16.2529 19.4869 16.211 19.502C16.1692 19.5172 16.1312 19.5413 16.0998 19.5727C16.0684 19.6041 16.0443 19.6421 16.0293 19.6838C16.0143 19.7255 16.0087 19.7701 16.0129 19.8142V32.355C16.0087 32.3991 16.0143 32.4437 16.0293 32.4854C16.0443 32.5271 16.0684 32.5651 16.0998 32.5965C16.1312 32.6279 16.1692 32.652 16.211 32.6672C16.2529 32.6823 16.2976 32.6881 16.3419 32.684H26.4679C26.5122 32.6881 26.5569 32.6823 26.5988 32.6672C26.6406 32.652 26.6786 32.6279 26.71 32.5965C26.7414 32.5651 26.7655 32.5271 26.7805 32.4854C26.7955 32.4437 26.8011 32.3991 26.7969 32.355V28.1318C26.8012 28.0877 26.7956 28.0432 26.7805 28.0015C26.7655 27.9599 26.7414 27.922 26.71 27.8907C26.6785 27.8594 26.6405 27.8353 26.5987 27.8204C26.5568 27.8054 26.5122 27.7998 26.4679 27.804ZM26.4679 13.9834H21.2456C21.2014 13.9877 21.1567 13.9821 21.1149 13.9671C21.073 13.9521 21.035 13.9281 21.0036 13.8968C20.9721 13.8655 20.948 13.8276 20.933 13.7859C20.918 13.7443 20.9124 13.6998 20.9166 13.6557V7.83922C20.9166 6.48655 20.0928 5.66585 18.735 5.66585H16.3419C16.2976 5.66182 16.2529 5.66758 16.211 5.68272C16.1692 5.69785 16.1312 5.72199 16.0998 5.75341C16.0684 5.78482 16.0443 5.82275 16.0293 5.86449C16.0143 5.90624 16.0087 5.95076 16.0129 5.99491V18.5357C16.0086 18.5798 16.0142 18.6243 16.0293 18.6659C16.0443 18.7076 16.0684 18.7455 16.0998 18.7768C16.1313 18.8081 16.1693 18.8321 16.2111 18.8471C16.253 18.8621 16.2976 18.8677 16.3419 18.8634H26.4679C26.5122 18.8677 26.5568 18.8621 26.5987 18.8471C26.6405 18.8321 26.6785 18.8081 26.71 18.7768C26.7414 18.7455 26.7655 18.7076 26.7805 18.6659C26.7956 18.6243 26.8012 18.5798 26.7969 18.5357V14.3073C26.8003 14.2636 26.7941 14.2196 26.7787 14.1785C26.7633 14.1374 26.7391 14.1002 26.7078 14.0693C26.6765 14.0385 26.6388 14.0149 26.5974 14C26.5559 13.9852 26.5118 13.9795 26.4679 13.9834ZM26.4679 0.13032H16.3419C16.2976 0.126091 16.253 0.131664 16.2111 0.14664C16.1693 0.161616 16.1313 0.185625 16.0998 0.216947C16.0684 0.248269 16.0443 0.286129 16.0293 0.327817C16.0142 0.369504 16.0086 0.413988 16.0129 0.458081V4.67476C16.0087 4.7189 16.0143 4.76343 16.0293 4.80517C16.0443 4.84691 16.0684 4.88484 16.0998 4.91626C16.1312 4.94768 16.1692 4.97181 16.211 4.98695C16.2529 5.00208 16.2976 5.00784 16.3419 5.00382H26.4679C26.5122 5.00784 26.5569 5.00208 26.5988 4.98695C26.6406 4.97181 26.6786 4.94768 26.71 4.91626C26.7414 4.88484 26.7655 4.84691 26.7805 4.80517C26.7955 4.76343 26.8011 4.7189 26.7969 4.67476V0.451578C26.8001 0.408003 26.7938 0.36425 26.7783 0.32337C26.7628 0.28249 26.7386 0.245467 26.7073 0.214882C26.6759 0.184296 26.6383 0.160885 26.597 0.146281C26.5556 0.131676 26.5116 0.126229 26.4679 0.13032ZM8.15071 0.000256004H7.74599C6.30985 0.000256004 5.56437 0.984841 5.56437 2.17363V4.67476C5.56016 4.7189 5.56576 4.76343 5.58079 4.80517C5.59582 4.84691 5.61989 4.88484 5.6513 4.91626C5.68272 4.94768 5.72069 4.97181 5.76253 4.98695C5.80437 5.00208 5.84905 5.00784 5.89338 5.00382H7.82171C7.86604 4.9998 7.91071 5.00556 7.95255 5.02069C7.99439 5.03583 8.03237 5.05996 8.06378 5.09138C8.09519 5.1228 8.11927 5.16073 8.13429 5.20247C8.14932 5.24421 8.15493 5.28874 8.15071 5.33288V10.088C8.1463 10.1327 8.15201 10.1778 8.16741 10.22C8.18281 10.2623 8.20751 10.3005 8.2397 10.3319C8.2719 10.3634 8.31075 10.3872 8.35342 10.4017C8.39608 10.4163 8.44147 10.4211 8.48625 10.4158H12.7189C12.7637 10.421 12.8092 10.4162 12.8519 10.4017C12.8946 10.3872 12.9335 10.3634 12.9658 10.332C12.9981 10.3005 13.0229 10.2623 13.0385 10.2201C13.0541 10.1779 13.06 10.1328 13.0558 10.088V4.88546C13.0558 1.92781 11.1144 0.000256004 8.15071 0.000256004ZM7.15587 27.804H5.22231C5.17803 27.8078 5.13346 27.8019 5.09173 27.7867C5.05 27.7715 5.01212 27.7473 4.98076 27.716C4.9494 27.6846 4.92531 27.6468 4.91021 27.6051C4.8951 27.5635 4.88933 27.5191 4.89331 27.475V24.5225C4.89331 23.1699 4.06949 22.3492 2.71169 22.3492H0.329021C0.284812 22.3452 0.240262 22.3509 0.198525 22.366C0.156788 22.381 0.118883 22.405 0.0874947 22.4363C0.0561059 22.4676 0.032 22.5053 0.0168833 22.5469C0.00176657 22.5885 -0.00399154 22.6329 1.6539e-05 22.6769V27.886C1.6539e-05 30.8775 1.8931 32.8063 4.89853 32.8063H5.30326C6.66105 32.8063 7.48487 31.9869 7.48487 30.6329V28.1318C7.48888 28.0878 7.48312 28.0434 7.468 28.0018C7.45289 27.9602 7.42878 27.9225 7.39739 27.8912C7.366 27.8599 7.3281 27.8359 7.28636 27.8208C7.24463 27.8058 7.20008 27.8001 7.15587 27.804ZM11.8559 18.8231L5.43381 11.5643C5.07987 11.1721 4.88855 10.6608 4.89853 10.1335V0.328017C4.90254 0.283975 4.89678 0.239594 4.88166 0.198014C4.86655 0.156435 4.84244 0.118674 4.81105 0.0874036C4.77966 0.0561334 4.74176 0.0321187 4.70002 0.017059C4.65828 0.00199942 4.61373 -0.00373693 4.56952 0.000256004C2.01713 0.000256004 1.6539e-05 2.21134 1.6539e-05 4.83864V10.7448C-0.0254292 11.9431 0.417415 13.1043 1.23509 13.9834L7.61543 21.2007C7.98621 21.5688 8.15071 22.0617 8.15071 22.6314V32.4733C8.14546 32.5185 8.15053 32.5642 8.16555 32.607C8.18057 32.6499 8.20516 32.6888 8.23745 32.7209C8.26974 32.7529 8.30891 32.7772 8.352 32.792C8.39509 32.8068 8.44099 32.8117 8.48625 32.8063C11.0791 32.8063 13.0558 30.5107 13.0558 27.9263V22.0214C13.0558 20.7507 12.6367 19.6841 11.8546 18.8231H11.8559Z" fill="white"/>
</g>
<defs>
<clipPath id="clip0_620_2843">
<rect width="150" height="32.8061" fill="white"/>
</clipPath>
</defs>
</svg>
